<svg width="48" height="48" xmlns="http://www.w3.org/2000/svg" viewBox="0 0 48 48" xml:space="preserve"><title>Fog</title><path fill-rule="evenodd" clip-rule="evenodd" d="M0 32.5c0-.4.2-1 .4-1.2s.8-.3 1.1-.3h36.2c.4 0 1 .2 1.2.4.2.2.6.8.6 1.2s-.2.8-.4 1.2c-.4.4-.8.4-1.2.4H1.7c-.4 0-1-.2-1.2-.4-.3-.3-.5-.7-.5-1.3zm5-6c0-.4.2-.8.6-1.2.4-.1.6-.3 1.2-.3H43c.4 0 .8.2 1.2.4s.4.8.4 1.2-.2.8-.4 1.2c-.4.4-.8.4-1.2.4H6.8c-.4 0-.8-.2-1.2-.4-.4-.5-.6-.9-.6-1.3zm.4-4.6c0 .2.2.2.4.2h2.7c.2 0 .2-.2.4-.4.4-1 1.2-1.7 2.1-2.5 1-.6 1.9-1 3.1-1.2l1.2-.2c.2 0 .4-.2.4-.4l.2-1c.2-2.1 1.2-3.9 2.7-5.2 1.5-1.4 3.5-2.1 5.4-2.1 2.1 0 3.9.8 5.4 2.1 1.5 1.4 2.5 3.1 2.7 5.2l.2 1.2c0 .2.2.4.4.4h3.1c1.2 0 2.3.4 3.5 1 1.2.6 1.7 1.5 2.3 2.7.2.2.2.4.4.4h2.7c.2 0 .4-.2.2-.4-.6-1.9-1.7-3.7-3.3-4.8-1.7-1.2-3.7-1.9-5.8-1.9h-.6c-.6-2.5-1.9-4.6-4.1-6.4S26.7 6 24.2 6c-2.7 0-5 .8-7.2 2.5s-3.5 3.9-4.1 6.6c-1.7.4-3.1 1.2-4.3 2.3-1.1 1.2-2.8 2.7-3.2 4.5 0-.2 0 0 0 0zm3.1 16.6c0-.4.2-.8.6-1.2.4-.2.6-.4 1.2-.4h36.2c.4 0 .8.2 1.2.4.4.4.4.8.4 1.2s-.2.8-.4 1.2c-.2.4-.8.6-1.4.6H10.1c-.4 0-.8-.2-1.2-.6-.2-.4-.4-.8-.4-1.2z"/></svg>