<svg width="48" height="48" xmlns="http://www.w3.org/2000/svg" viewBox="0 0 48 48" xml:space="preserve"><title>Moon</title><path fill-rule="evenodd" clip-rule="evenodd" d="M10 24.4c0-2 .4-3.8 1.2-5.6.8-1.8 1.8-3.2 3-4.6s2.8-2.2 4.6-3c1.8-.8 3.6-1.2 5.6-1.2h2.2c.4 0 .4.2.4.6v1.8c0 2.6 1 4.8 2.8 6.4 1.8 1.8 3.8 2.8 6.4 2.8l1.6.2c.4 0 .4.2.4.4v2c0 2.6-.6 5-1.8 7.2-1.2 2.2-3 4-5.2 5.2-2.2 1.2-4.6 2-7.2 2-2 0-3.8-.4-5.6-1.2-1.8-.8-3.2-1.8-4.6-3-1.2-1.2-2.2-2.8-3-4.6-.4-1.6-.8-3.6-.8-5.4zm3.6 0c0 1.6.2 3 .8 4.4.6 1.4 1.4 2.4 2.4 3.4s2.2 1.6 3.4 2.2c1.2.6 2.6.8 3.8.8s2.4-.2 3.6-.6c1.2-.4 2.2-1 3.2-2s1.8-1.8 2.6-3.2c.8-1.2 1.2-2.6 1.4-4.2-3.2-.6-5.8-2-7.8-4.2s-2.8-4.6-3.2-7.6c-2 .2-3.6.6-5.2 1.8-1.6 1-2.8 2.4-3.6 4-.8 1.6-1.4 3.4-1.4 5.2z"/></svg>