<svg width="48" height="48" xmlns="http://www.w3.org/2000/svg"><path d="M24 34.667c.736 0 1.333.597 1.333 1.333v2.667a1.333 1.333 0 11-2.666 0V36c0-.736.597-1.333 1.333-1.333zm9.495-3.058l1.886 1.886a1.333 1.333 0 01-1.886 1.886l-1.886-1.886a1.333 1.333 0 011.886-1.886zm-16.943 0c.521.521.521 1.365 0 1.886l-1.885 1.886a1.333 1.333 0 01-1.886-1.886l1.886-1.886c.52-.52 1.365-.52 1.885 0zM24 14.667a9.333 9.333 0 110 18.666 9.333 9.333 0 010-18.666zm0 2.666a6.667 6.667 0 100 13.334 6.667 6.667 0 000-13.334zm-12 5.334a1.333 1.333 0 110 2.666H9.333a1.333 1.333 0 110-2.666H12zm26.667 0a1.333 1.333 0 110 2.666H36a1.333 1.333 0 110-2.666h2.667zm-3.286-9.724c.52.52.52 1.365 0 1.885l-1.886 1.886a1.333 1.333 0 11-1.886-1.886l1.886-1.885c.52-.52 1.365-.52 1.886 0zm-20.714 0l1.885 1.885a1.333 1.333 0 11-1.885 1.886l-1.886-1.886a1.333 1.333 0 111.886-1.885zM24 8c.736 0 1.333.597 1.333 1.333V12a1.333 1.333 0 11-2.666 0V9.333C22.667 8.597 23.264 8 24 8z" fill="#000" fill-rule="evenodd"/></svg>