<svg width="40" height="40" xmlns="http://www.w3.org/2000/svg"><path d="M12.94 4c1.34.004 1.647.016 2.358.048.852.039 1.433.174 1.942.372.526.204.972.478 1.417.923.445.445.719.89.923 1.417.198.509.333 1.09.372 1.942C19.99 9.555 20 9.827 20 12s-.01 2.445-.048 3.298c-.039.852-.174 1.433-.372 1.942a3.92 3.92 0 01-.923 1.417c-.445.445-.89.719-1.417.923-.509.198-1.09.333-1.942.372-.853.039-1.125.048-3.298.048s-2.445-.01-3.298-.048c-.852-.039-1.433-.174-1.942-.372a3.921 3.921 0 01-1.417-.923 3.92 3.92 0 01-.923-1.417c-.198-.509-.333-1.09-.372-1.942a42.472 42.472 0 01-.047-2.359v-1.878c.003-1.34.015-1.648.047-2.36.039-.85.174-1.432.372-1.941a3.92 3.92 0 01.923-1.417c.445-.445.89-.719 1.417-.923.509-.198 1.09-.333 1.942-.372a42.472 42.472 0 012.359-.047zm-.222 1.442h-1.436c-1.49.002-1.777.012-2.515.046-.78.036-1.203.166-1.485.276-.374.145-.64.318-.92.598a2.48 2.48 0 00-.598.92c-.11.282-.24.705-.276 1.485-.034.738-.044 1.024-.046 2.515v1.436c.002 1.49.012 1.777.046 2.515.036.78.166 1.203.276 1.485.145.374.318.64.598.92.28.28.546.453.92.598.282.11.705.24 1.485.276.738.034 1.024.044 2.515.046h1.436c1.49-.002 1.777-.012 2.515-.046.78-.036 1.203-.166 1.485-.276.374-.145.64-.318.92-.598.28-.28.453-.546.598-.92.11-.282.24-.705.276-1.485.034-.738.044-1.024.046-2.515v-1.436c-.002-1.49-.012-1.777-.046-2.515-.036-.78-.166-1.203-.276-1.485a2.48 2.48 0 00-.598-.92 2.479 2.479 0 00-.92-.598c-.282-.11-.705-.24-1.485-.276-.738-.034-1.024-.044-2.515-.046zM12 7.892a4.108 4.108 0 110 8.216 4.108 4.108 0 010-8.216zm0 1.441a2.667 2.667 0 100 5.334 2.667 2.667 0 000-5.334zm4.27-2.563a.96.96 0 110 1.92.96.96 0 010-1.92z" fill="#000" fill-rule="evenodd"/></svg>