<svg width="24" height="24" xmlns="http://www.w3.org/2000/svg"><g fill="none" fill-rule="evenodd"><path d="M12.099 18.928l-.12-.003a1.02 1.02 0 01-.078.003c-.928 0-1.524-.423-2.1-.832-.398-.282-.773-.548-1.216-.622a3.92 3.92 0 00-.638-.054c-.374 0-.669.058-.884.1-.131.026-.244.048-.33.048-.09 0-.187-.02-.229-.164a5.112 5.112 0 01-.089-.365c-.066-.302-.112-.488-.239-.508-1.472-.228-1.893-.54-1.987-.76a.286.286 0 01-.023-.095.166.166 0 01.139-.173c2.263-.374 3.278-2.696 3.32-2.795l.004-.008c.138-.281.165-.526.08-.726-.155-.368-.661-.53-.997-.636-.082-.026-.16-.05-.22-.075-.67-.265-.726-.538-.7-.677.046-.236.36-.401.615-.401a.43.43 0 01.184.036c.3.142.572.213.806.213.323 0 .464-.136.482-.154-.008-.154-.019-.314-.029-.48-.068-1.074-.15-2.408.187-3.17 1.015-2.283 3.166-2.46 3.802-2.46l.278-.003h.038c.636 0 2.793.177 3.808 2.462.338.762.254 2.097.187 3.17l-.003.047c-.01.15-.018.295-.026.434.016.016.146.142.44.153.223-.008.479-.08.76-.212a.57.57 0 01.236-.046c.095 0 .191.018.271.051l.005.002c.227.081.376.241.38.408.002.158-.117.394-.704.627-.061.024-.139.049-.221.075-.336.107-.842.268-.997.636-.085.2-.058.444.08.726l.004.008c.042.099 1.056 2.42 3.32 2.795a.166.166 0 01.139.173.28.28 0 01-.023.095c-.094.22-.515.53-1.987.759-.12.018-.167.175-.239.506-.026.12-.053.237-.089.362-.031.107-.098.158-.21.158h-.019c-.078 0-.189-.014-.33-.042a4.384 4.384 0 00-.884-.094c-.208 0-.423.018-.639.054-.441.074-.817.34-1.214.621-.577.41-1.173.833-2.101.833" fill="#FFF"/><path d="M12.155 4h-.041l-.276.003c-.66 0-2.897.184-3.952 2.56-.355.798-.27 2.155-.202 3.246l.024.39a.635.635 0 01-.311.069c-.21 0-.457-.066-.736-.198a.59.59 0 00-.254-.052c-.326 0-.716.216-.777.537-.044.231.06.569.8.863.067.026.147.052.232.079.307.097.77.245.895.542.065.153.039.351-.077.588l-.008.016c-.04.095-1.02 2.336-3.194 2.695a.333.333 0 00-.277.348c.002.05.014.1.035.15.163.382.852.663 2.105.858.042.057.085.258.112.38.026.121.053.245.092.377.038.13.136.283.388.283.102 0 .222-.023.361-.05.21-.042.495-.098.853-.098.199 0 .404.018.612.052.404.068.748.312 1.146.594.57.405 1.215.862 2.196.862.027 0 .054 0 .08-.003.033.002.074.003.118.003.981 0 1.626-.458 2.196-.862.399-.283.742-.526 1.147-.594a3.74 3.74 0 01.611-.052c.342 0 .612.044.853.091.15.03.272.045.361.045H17.285a.36.36 0 00.37-.278 5.37 5.37 0 00.092-.373c.027-.122.07-.322.112-.378 1.254-.196 1.942-.476 2.105-.857a.442.442 0 00.035-.15.332.332 0 00-.277-.348c-2.175-.36-3.154-2.6-3.194-2.695a.389.389 0 00-.008-.016c-.116-.237-.142-.435-.077-.588.126-.297.588-.445.894-.542.086-.027.167-.053.233-.08.542-.214.814-.478.808-.784-.004-.24-.19-.454-.487-.56a.883.883 0 00-.334-.065c-.08 0-.197.01-.307.062-.257.122-.49.188-.69.197a.612.612 0 01-.268-.067l.02-.344.004-.046c.068-1.092.153-2.45-.202-3.25C15.058 4.186 12.817 4 12.154 4m0 .333c.603 0 2.68.162 3.657 2.363.322.725.24 2.038.174 3.093l-.03.485-.003.066.044.05c.018.02.186.195.558.21h.012c.246-.01.524-.086.825-.228a.401.401 0 01.166-.031c.071 0 .147.013.209.04l.01.004c.157.055.269.16.27.255.002.053-.038.246-.598.468a3.47 3.47 0 01-.21.071c-.365.116-.915.291-1.1.73-.105.246-.076.538.085.865.066.155 1.105 2.506 3.445 2.893 0 .01-.003.023-.01.037-.04.094-.291.418-1.86.66-.245.039-.305.315-.375.636-.025.115-.05.23-.086.35-.01.037-.013.039-.052.039h-.018c-.07 0-.175-.015-.298-.039a4.573 4.573 0 00-.916-.097c-.217 0-.441.02-.666.057-.48.08-.87.357-1.284.65-.555.394-1.128.801-2.004.801-.038 0-.075 0-.113-.003h-.02a.776.776 0 01-.065.003c-.875 0-1.45-.407-2.004-.8-.414-.294-.804-.571-1.284-.651a4.077 4.077 0 00-.666-.057c-.389 0-.694.06-.916.104a1.855 1.855 0 01-.298.044c-.057 0-.058-.003-.07-.044-.035-.12-.06-.24-.086-.354-.07-.32-.13-.598-.375-.637-1.569-.243-1.82-.567-1.86-.66a.11.11 0 01-.01-.039c2.34-.387 3.38-2.738 3.445-2.893.161-.327.19-.618.085-.865-.185-.438-.735-.614-1.1-.73a3.403 3.403 0 01-.21-.07c-.473-.188-.618-.377-.596-.492.025-.132.253-.266.451-.266.045 0 .084.007.113.02.323.153.618.23.877.23.407 0 .588-.19.607-.212l.044-.05-.003-.065a57.756 57.756 0 00-.03-.484c-.066-1.055-.148-2.367.174-3.092.974-2.193 3.04-2.362 3.65-2.362l.28-.003h.036" fill="#030303"/></g></svg>