<svg width="40" height="40" xmlns="http://www.w3.org/2000/svg"><path d="M12.099 18.928l-.12-.003a1.02 1.02 0 01-.078.003c-.928 0-1.524-.423-2.1-.832-.398-.282-.773-.548-1.216-.622a3.92 3.92 0 00-.638-.054c-.374 0-.669.058-.884.1-.131.026-.244.048-.33.048-.09 0-.187-.02-.229-.164a5.112 5.112 0 01-.089-.365c-.066-.302-.112-.488-.239-.508-1.472-.228-1.893-.54-1.987-.76a.286.286 0 01-.023-.095.166.166 0 01.139-.173c2.263-.374 3.278-2.696 3.32-2.795l.004-.008c.138-.281.165-.526.08-.726-.155-.368-.661-.53-.997-.636-.082-.026-.16-.05-.22-.075-.67-.265-.726-.538-.7-.677.046-.236.36-.401.615-.401a.43.43 0 01.184.036c.3.142.572.213.806.213.323 0 .464-.136.482-.154-.008-.154-.019-.314-.029-.48-.068-1.074-.15-2.408.187-3.17 1.015-2.283 3.166-2.46 3.802-2.46l.278-.003h.038c.636 0 2.793.177 3.808 2.462.338.762.254 2.097.187 3.17l-.003.047c-.01.15-.018.295-.026.434.016.016.146.142.44.153.223-.008.479-.08.76-.212a.57.57 0 01.236-.046c.095 0 .191.018.271.051l.005.002c.227.081.376.241.38.408.002.158-.117.394-.704.627-.061.024-.139.049-.221.075-.336.107-.842.268-.997.636-.085.2-.058.444.08.726l.004.008c.042.099 1.056 2.42 3.32 2.795a.166.166 0 01.139.173.28.28 0 01-.023.095c-.094.22-.515.53-1.987.759-.12.018-.167.175-.239.506-.026.12-.053.237-.089.362-.031.107-.098.158-.21.158h-.019c-.078 0-.189-.014-.33-.042a4.384 4.384 0 00-.884-.094c-.208 0-.423.018-.639.054-.441.074-.817.34-1.214.621-.577.41-1.173.833-2.101.833" fill="#000" fill-rule="evenodd"/></svg>