<svg width="24" height="24" xmlns="http://www.w3.org/2000/svg"><path d="M20 6.54a6.563 6.563 0 01-1.885.516 3.292 3.292 0 001.443-1.816 6.573 6.573 0 01-2.085.797A3.283 3.283 0 0011.88 9.03 9.32 9.32 0 015.115 5.6 3.281 3.281 0 006.13 9.984a3.266 3.266 0 01-1.487-.411v.041a3.285 3.285 0 002.633 3.219 3.289 3.289 0 01-1.483.056 3.286 3.286 0 003.067 2.28A6.587 6.587 0 014 16.528a9.29 9.29 0 005.032 1.475c6.038 0 9.34-5.002 9.34-9.34 0-.142-.004-.284-.01-.424A6.673 6.673 0 0020 6.539" fill="#1DA1F2" fill-rule="evenodd"/></svg>