<svg width="48" height="48" xmlns="http://www.w3.org/2000/svg" viewBox="0 0 48 48" style="enable-background:new 0 0 48 48" xml:space="preserve"><title>Facebook</title><style>.facebook--black{fill-rule:evenodd;clip-rule:evenodd}</style><path class="facebook--black" d="M30.1 40V27.6h4.2l.6-4.8h-4.8v-3.1c0-1.4.4-2.4 2.4-2.4h2.6V13c-.4-.1-2-.2-3.7-.2-3.7 0-6.2 2.3-6.2 6.4v3.6H21v4.8h4.2V40h4.9zM9.8 40c-1 0-1.8-.8-1.8-1.8V9.8C8 8.8 8.8 8 9.8 8h28.5c1 0 1.8.8 1.8 1.8v28.5c0 1-.8 1.8-1.8 1.8H9.8z"/></svg>