<svg width="48" height="48" xmlns="http://www.w3.org/2000/svg" viewBox="0 0 48 48" xml:space="preserve"><title>Linkedin</title><path fill-rule="evenodd" clip-rule="evenodd" fill="#007BB5" d="M21 33.6h4v-6.4c0-1.7.3-3.3 2.4-3.3s2.1 1.9 2.1 3.4v6.3h4v-7.1c0-3.5-.8-6.2-4.8-6.2-2 0-3.3 1.1-3.8 2.1h-.1v-1.8H21v13zm-4.6-19.5c-1.3 0-2.3 1-2.3 2.3 0 1.3 1 2.3 2.3 2.3 1.3 0 2.3-1 2.3-2.3.1-1.2-1-2.3-2.3-2.3zm-2 19.5h4v-13h-4v13zM9.8 40c-1 0-1.8-.8-1.8-1.8V9.8C8 8.8 8.8 8 9.8 8h28.5c1 0 1.8.8 1.8 1.8v28.5c0 1-.8 1.8-1.8 1.8H9.8z"/></svg>