<svg width="48" height="48" xmlns="http://www.w3.org/2000/svg" viewBox="0 0 48 48" xml:space="preserve"><title>Tiktok</title><path fill-rule="evenodd" clip-rule="evenodd" fill="#FFF" d="M38.1 15.9c-2-.1-3.8-1-5.2-2.3-.7-.7-1.3-1.6-1.7-2.5-.4-1-.6-2-.6-3H25v20.8c0 3.5-2.1 5.6-4.7 5.6-.6 0-1.2-.1-1.8-.3-.6-.2-1.1-.6-1.6-1-.4-.4-.8-1-1-1.5-.2-.6-.4-1.2-.4-1.8 0-.6.1-1.2.4-1.8.2-.6.6-1.1 1-1.5.4-.4 1-.8 1.6-1 .6-.2 1.2-.3 1.8-.3.5 0 1 .1 1.5.3v-5.7c-.5-.1-1-.2-1.5-.2-2 0-4 .6-5.7 1.7-1.7 1.1-3 2.7-3.8 4.6-.8 1.9-1 3.9-.6 5.9.4 2 1.4 3.8 2.8 5.3 1.4 1.4 3.3 2.4 5.3 2.8 2 .4 4.1.2 5.9-.6 1.9-.8 3.5-2.1 4.6-3.8 1.1-1.7 1.7-3.7 1.7-5.7V18.8c2.2 1.5 4.8 2.2 7.5 2.3v-5.2z"/></svg>