<svg width="48" height="48" xmlns="http://www.w3.org/2000/svg" viewBox="0 0 48 48" xml:space="preserve"><title>Youtube</title><path fill-rule="evenodd" clip-rule="evenodd" fill="#E70000" d="M20.3 29.7V19.4l9.7 5.2-9.7 5.1zm21.3-12.1s-.4-2.5-1.4-3.7c-1.4-1.5-2.9-1.5-3.6-1.6C31.6 12 24 12 24 12s-7.6 0-12.6.4c-.7.1-2.2.1-3.6 1.6-1.1 1.1-1.4 3.7-1.4 3.7s-.4 3-.4 6v2.8c0 3 .4 6 .4 6s.4 2.5 1.4 3.7c1.4 1.5 3.2 1.4 4 1.6 2.9.3 12.2.4 12.2.4s7.6 0 12.6-.4c.7-.1 2.2-.1 3.6-1.6 1.1-1.1 1.4-3.7 1.4-3.7s.4-3 .4-6v-2.8c0-3.1-.4-6.1-.4-6.1z"/></svg>