<svg width="48" height="35" xmlns="http://www.w3.org/2000/svg"><path d="M0 26.516c0-.387.194-.968.387-1.161.194-.194.774-.387 1.161-.387h36.194c.387 0 .968.193 1.161.387.194.193.58.774.58 1.161s-.193.774-.386 1.161c-.387.388-.774.388-1.162.388H1.742c-.387 0-.968-.194-1.161-.388-.387-.193-.581-.58-.581-1.16zm5.032-6c0-.387.194-.774.58-1.161.388-.194.582-.387 1.162-.387h36.194c.387 0 .774.193 1.161.387.387.193.387.774.387 1.161s-.193.774-.387 1.161c-.387.388-.774.388-1.161.388H6.774c-.387 0-.774-.194-1.161-.388-.387-.387-.58-.774-.58-1.16zm.387-4.645c0 .194.194.194.387.194h2.71c.194 0 .194-.194.387-.388.387-.967 1.162-1.742 2.13-2.516.967-.58 1.935-.967 3.096-1.161l1.161-.194a.416.416 0 00.387-.387l.194-.967c.194-2.13 1.161-3.871 2.71-5.226 1.548-1.355 3.484-2.13 5.419-2.13 2.129 0 3.871.775 5.42 2.13 1.548 1.355 2.515 3.097 2.709 5.226l.194 1.16c0 .194.193.388.387.388h3.096c1.162 0 2.323.387 3.484.968 1.162.58 1.742 1.548 2.323 2.71.193.193.193.387.387.387h2.71c.193 0 .387-.194.193-.388-.58-1.935-1.742-3.677-3.29-4.838-1.742-1.162-3.678-1.936-5.807-1.936h-.58c-.58-2.516-1.936-4.645-4.065-6.387C29.032.774 26.71 0 24.194 0c-2.71 0-5.033.774-7.162 2.516-2.129 1.742-3.484 3.871-4.064 6.58-1.742.388-3.097 1.162-4.258 2.323-1.162 1.162-2.904 2.71-3.29 4.452 0-.194 0 0 0 0zm3.097 16.645c0-.387.194-.774.58-1.161.388-.194.581-.387 1.162-.387h36.194c.387 0 .774.193 1.16.387.388.387.388.774.388 1.161s-.194.774-.387 1.161c-.194.388-.774.581-1.355.581H10.065c-.388 0-.775-.193-1.162-.58-.193-.388-.387-.775-.387-1.162z" fill="#000" fill-rule="evenodd"/></svg>