<svg width="42" height="34" xmlns="http://www.w3.org/2000/svg"><path d="M0 19c0-2.2.8-4.4 2.2-6.2 1.4-1.8 3.2-3 5.4-3.4.6-2.8 2-5 4.2-6.8C14 .8 16.6 0 19.4 0s5.2.8 7.4 2.6 3.6 3.8 4.2 6.6h.6c1.8 0 3.4.4 5 1.2 1.6.8 2.8 2 3.6 3.6.8 1.6 1.4 3.2 1.4 5 0 2.6-1 5-2.8 7-1.8 2-4 3-6.8 3-.2 0-.4-.2-.4-.4V26c0-.2.2-.4.4-.4 1.8 0 3.2-.8 4.4-2 1.2-1.2 1.8-2.8 1.8-4.6 0-1.8-.6-3.2-2-4.6-1.2-1.2-2.8-2-4.6-2h-3.2c-.2 0-.4-.2-.4-.4l-.2-1.2c-.2-2.2-1.2-4-2.8-5.4-1.6-1.4-3.6-2.2-5.8-2.2-2.2 0-4.2.8-5.8 2.2-1.6 1.4-2.6 3.2-2.8 5.4l.2 1.4c0 .2-.2.4-.4.4h-1c-1.6 0-3 .8-4.2 2C4 15.8 3.4 17.2 3.4 19c0 1.8.6 3.2 1.8 4.6 1.2 1.4 2.6 2 4.4 2 .2 0 .4.2.4.4v2.6c0 .2-.2.4-.4.4-2.6-.2-5-1.2-6.8-3C1 24.2 0 21.6 0 19zm12 1.8c0-.4.2-1.2.8-2 .4-.8 1-1.6 1.4-2 .4-.4.6-.8.8-.8l.8.8c.6.6 1 1.2 1.4 2 .4.8.6 1.4.6 2 0 .8-.2 1.4-.8 2-.6.6-1.2.8-2 .8s-1.4-.2-2-.8c-.8-.6-1-1.2-1-2zm6 8c0-.6.2-1.2.4-2s.8-1.4 1.2-2c.4-.6.8-1 1.4-1.6l1.2-1.2.4-.4.4.4c.8.6 1.6 1.6 2.6 3 .4.6.8 1.4 1.2 2 .4.6.4 1.4.4 2 0 1.2-.4 2.4-1.4 3.2-1 .8-2 1.4-3.4 1.4-1.2 0-2.4-.4-3.2-1.4-.8-1-1.2-2.2-1.2-3.4zm2.8-13.4c0-.8.6-1.8 2-3.2l.4.4c.4.4.6.8 1 1.4.2.6.4 1 .4 1.2 0 .6-.2 1-.6 1.4-.4.4-.8.6-1.4.6-.6 0-1-.2-1.4-.6-.2-.2-.4-.6-.4-1.2z" fill="#fff" fill-rule="evenodd"/></svg>