<svg width="48" height="38" xmlns="http://www.w3.org/2000/svg"><path d="M0 28.657c0 1.612.358 3.044 1.254 4.477.895 1.433 1.79 2.508 3.224 3.224 1.432.717 2.865 1.254 4.477 1.254H28.3c1.611 0 3.044-.358 4.477-1.254 1.433-.895 2.508-1.79 3.224-3.224.716-1.433 1.254-2.865 1.254-4.477 0-1.254-.18-2.329-.717-3.582 1.433-1.612 1.97-3.582 1.97-5.91 0-1.255-.179-2.508-.716-3.583-.537-1.075-1.075-2.15-1.97-3.045-.896-.895-1.791-1.612-3.045-1.97-1.075-.537-2.328-.716-3.582-.716-2.687 0-5.015 1.074-6.985 3.045-1.433-.717-3.045-1.254-4.836-1.254-2.507 0-4.657.716-6.627 2.328-1.97 1.612-3.224 3.582-3.76 6.09-1.971.537-3.583 1.433-4.837 3.044C.896 24.716 0 26.687 0 28.657zm3.045 0c0-1.433.537-2.866 1.433-3.94 1.074-1.075 2.328-1.792 3.76-1.97h.896c.18 0 .359-.18.359-.359l.179-.895c.179-1.97 1.074-3.583 2.507-4.836 1.433-1.254 3.045-1.97 5.015-1.97 1.97 0 3.761.716 5.194 1.97 1.433 1.253 2.328 2.865 2.508 4.836l.179 1.074c0 .18.179.358.358.358h2.866c1.611 0 2.865.538 4.119 1.791 1.075 1.075 1.791 2.508 1.791 4.12s-.537 3.045-1.791 4.12c-1.075 1.074-2.508 1.79-4.12 1.79H8.777c-1.612 0-2.866-.537-4.12-1.79-1.074-1.255-1.611-2.687-1.611-4.3zm12-22.03c0 .358.179.716.358 1.074l1.254 1.075c.358.358.895.537 1.074.358.359 0 .717-.179 1.075-.537.358-.358.358-.716.358-1.075 0-.358-.179-.537-.537-.716l-1.075-1.254c-.358-.358-.716-.358-1.074-.358-.359 0-.717.18-1.075.537-.18.18-.358.538-.358.896zm9.492 8.06c1.254-1.254 2.687-1.791 4.299-1.791 1.79 0 3.224.537 4.477 1.79 1.254 1.254 1.791 2.687 1.791 4.478 0 1.075-.358 2.15-.895 3.224-1.791-1.791-3.761-2.507-6.269-2.507h-.358c-.358-1.97-1.433-3.762-3.045-5.194zm2.866-9.493c0 .537.18.896.358 1.075.18.179.717.358 1.075.358.537 0 .895-.18 1.074-.358.359-.359.359-.717.359-1.075V1.433c0-.358-.18-.717-.359-1.075S29.373 0 29.015 0s-.716.18-1.075.358c-.358.18-.358.717-.358 1.075l-.179 3.761zm10.03 4.12c0 .537.179.895.358 1.074.358.358.716.358 1.075.358.358 0 .716-.179 1.074-.358l2.508-2.507c.358-.359.358-.717.358-1.075s-.18-.716-.358-1.075c-.358-.358-.717-.358-1.075-.358s-.716.18-1.074.358L37.612 8.24c-.18.179-.18.537-.18 1.074zm1.254 21.134c0 .358.179.895.358 1.074l1.074 1.075c.18.358.538.358 1.075.358.537 0 .716-.179 1.075-.358.358-.18.358-.716.358-1.075 0-.358-.18-.716-.358-1.074l-1.075-1.075c-.358-.358-.716-.358-1.075-.358-.358 0-.716.179-1.074.358-.18.358-.358.717-.358 1.075zm2.686-11.284c0 .358.18.717.537 1.075.359.358.717.358 1.075.358h3.582c.358 0 .717-.18 1.075-.358.358-.18.358-.717.358-1.075s-.18-.716-.358-1.074c-.18-.359-.717-.359-1.075-.359h-3.582c-.358 0-.716.18-1.075.359-.358.358-.537.716-.537 1.074z" fill="#fff" fill-rule="evenodd"/></svg>