<svg width="48" height="48" xmlns="http://www.w3.org/2000/svg"><path d="M25.644 8.001c2.88.006 3.49.029 4.953.095 1.703.078 2.866.348 3.884.744a7.843 7.843 0 012.834 1.845 7.839 7.839 0 011.845 2.834c.396 1.018.666 2.181.744 3.884.07 1.56.092 2.15.096 5.56v2.074c-.004 3.41-.025 4-.096 5.56-.078 1.703-.348 2.866-.744 3.884a7.839 7.839 0 01-1.845 2.834 7.843 7.843 0 01-2.834 1.845c-1.018.396-2.181.666-3.884.744-1.56.07-2.15.092-5.56.096h-2.074c-3.41-.004-4-.025-5.56-.096-1.703-.078-2.866-.348-3.884-.744a7.843 7.843 0 01-2.834-1.845A7.839 7.839 0 018.84 34.48c-.396-1.018-.666-2.181-.744-3.884-.066-1.463-.09-2.072-.095-4.953v-3.288c.006-2.88.029-3.49.095-4.953.078-1.703.348-2.866.744-3.884a7.839 7.839 0 011.845-2.834A7.843 7.843 0 0113.52 8.84c1.018-.396 2.181-.666 3.884-.744 1.463-.066 2.072-.09 4.953-.095zm-.625 2.882H22.98c-3.349.003-3.904.023-5.446.093-1.56.071-2.408.332-2.971.551-.747.29-1.28.637-1.84 1.197a4.96 4.96 0 00-1.197 1.84c-.219.563-.48 1.41-.55 2.97-.071 1.543-.09 2.098-.094 5.447v2.038c.003 3.349.023 3.904.093 5.446.071 1.56.332 2.408.551 2.971a4.96 4.96 0 001.197 1.84c.56.56 1.093.907 1.84 1.197.563.22 1.41.48 2.97.551 1.543.07 2.098.09 5.447.093h2.038c3.349-.003 3.904-.023 5.446-.093 1.56-.071 2.408-.332 2.971-.551a4.957 4.957 0 001.84-1.197 4.96 4.96 0 001.197-1.84c.219-.563.48-1.41.55-2.97.071-1.543.09-2.098.094-5.447V22.98c-.003-3.349-.023-3.904-.093-5.446-.071-1.56-.332-2.408-.551-2.971a4.96 4.96 0 00-1.197-1.84 4.957 4.957 0 00-1.84-1.197c-.563-.22-1.41-.48-2.97-.551-1.543-.07-2.098-.09-5.447-.093zM24 15.783a8.216 8.216 0 110 16.433 8.216 8.216 0 110-16.432zm0 2.884a5.333 5.333 0 100 10.666 5.333 5.333 0 000-10.666zm8.54-5.128a1.92 1.92 0 110 3.84 1.92 1.92 0 010-3.84z" fill="#000" fill-rule="evenodd"/></svg>