<svg width="48" height="48" xmlns="http://www.w3.org/2000/svg"><path d="M24.198 37.856c-.081 0-.16-.003-.24-.006-.05.003-.103.006-.156.006-1.857 0-3.048-.846-4.2-1.664-.796-.564-1.547-1.097-2.431-1.244a7.838 7.838 0 00-1.277-.108c-.748 0-1.338.116-1.769.2-.261.051-.487.096-.659.096-.18 0-.374-.04-.458-.329-.074-.25-.126-.493-.177-.729-.132-.605-.226-.977-.478-1.016-2.945-.457-3.787-1.079-3.975-1.52a.572.572 0 01-.046-.19c-.009-.17.11-.32.278-.346 4.526-.749 6.556-5.392 6.64-5.59l.007-.015c.277-.564.331-1.053.162-1.454-.31-.734-1.324-1.057-1.994-1.27-.164-.053-.32-.102-.443-.151-1.338-.531-1.45-1.076-1.396-1.354.09-.473.72-.803 1.229-.803.14 0 .263.025.366.073.602.284 1.145.427 1.613.427.647 0 .929-.273.963-.309-.016-.307-.036-.628-.057-.96-.135-2.148-.302-4.816.375-6.34 2.029-4.566 6.332-4.921 7.602-4.921l.557-.006h.076c1.273 0 5.585.355 7.616 4.925.677 1.523.509 4.195.374 6.34l-.006.094c-.018.3-.036.59-.051.868.032.033.291.284.878.307.446-.018.958-.16 1.52-.425a1.14 1.14 0 01.472-.093c.19 0 .384.037.544.104l.01.004c.454.161.752.481.758.816.006.314-.234.788-1.407 1.253-.122.048-.278.098-.443.15-.67.214-1.683.537-1.994 1.271-.17.4-.115.89.162 1.453l.007.017c.084.197 2.112 4.839 6.64 5.588a.333.333 0 01.278.347.56.56 0 01-.046.19c-.187.439-1.029 1.06-3.975 1.517-.24.037-.333.352-.477 1.012-.052.24-.105.476-.178.724-.063.215-.196.316-.421.316h-.037c-.156 0-.378-.028-.659-.083a8.768 8.768 0 00-1.769-.188c-.415 0-.845.036-1.277.108-.884.147-1.634.68-2.428 1.243-1.154.82-2.346 1.665-4.203 1.665" fill="#FFF" fill-rule="evenodd"/></svg>