<svg width="48" height="48" xmlns="http://www.w3.org/2000/svg"><path d="M40 13.079a13.126 13.126 0 01-3.77 1.033 6.584 6.584 0 002.886-3.632 13.146 13.146 0 01-4.169 1.593A6.557 6.557 0 0030.155 10a6.565 6.565 0 00-6.565 6.565c0 .515.058 1.016.17 1.496a18.638 18.638 0 01-13.532-6.86 6.534 6.534 0 00-.89 3.301 6.562 6.562 0 002.922 5.465 6.532 6.532 0 01-2.974-.822v.083a6.57 6.57 0 005.266 6.438 6.578 6.578 0 01-2.965.112 6.572 6.572 0 006.133 4.56 13.174 13.174 0 01-8.154 2.81c-.53 0-1.052-.031-1.566-.092a18.58 18.58 0 0010.064 2.95c12.076 0 18.68-10.004 18.68-18.68 0-.284-.007-.567-.02-.849A13.346 13.346 0 0040 13.079" fill="#000" fill-rule="evenodd"/></svg>