<svg width="24" height="24" xmlns="http://www.w3.org/2000/svg"><g fill="none" fill-rule="evenodd"><path d="M18.762 7.723a4.509 4.509 0 01-2.166-1.346 3.982 3.982 0 01-.98-2.666h-2.938v11.143c0 2.043-1.102 3.123-2.47 3.123a2.473 2.473 0 01-2.064-3.87 2.47 2.47 0 012.862-.93v-2.998a3.615 3.615 0 00-.798-.084h-.012a5.407 5.407 0 105.418 5.405V9.408c1.138.788 2.498 1.16 3.95 1.186V7.843a3.64 3.64 0 01-.802-.12" fill="#FE2C55"/><path d="M16.598 6.377c-.2-.14-.39-.293-.569-.46a3.862 3.862 0 01-1.158-2.204 4.264 4.264 0 01-.06-.713h-2.939v11.32c0 2.433-1.102 2.94-2.47 2.94a2.469 2.469 0 01-2.407-1.808 2.472 2.472 0 013.206-2.993V9.466C6.702 8.912 4 11.74 4 14.788a5.415 5.415 0 005.406 5.406c2.98 0 5.405-1.822 5.405-5.406V8.696c1.139.794 2.5 1.161 3.951 1.186V7.13a4.02 4.02 0 01-2.164-.753" fill="#25F4EE"/><path d="M14.811 14.788V8.696c1.139.794 2.5 1.161 3.952 1.186v-2.16a4.508 4.508 0 01-2.167-1.345c-.2-.14-.39-.293-.568-.46a3.862 3.862 0 01-1.158-2.204h-2.183v11.143c0 2.042-1.102 3.122-2.47 3.122a2.466 2.466 0 01-1.989-1.019 2.47 2.47 0 011.178-4.64c.272.002.542.05.799.14v-2.364a5.4 5.4 0 00-3.938 9.09 5.372 5.372 0 003.14 1.01c2.98 0 5.404-1.823 5.404-5.407" fill="#000"/></g></svg>