<?xml version="1.0" encoding="utf-8"?>
<svg version="1.1" id="Layer_1" xmlns="http://www.w3.org/2000/svg" xmlns:xlink="http://www.w3.org/1999/xlink" x="0px" y="0px"
	 viewBox="0 0 248 46" style="enable-background:new 0 0 248 46;" xml:space="preserve">
<style type="text/css">
	.st0{fill:#FFFFFF;}
</style>
<g id="Page-1">
	<g id="Health_x26_Safety:-Prevention" transform="translate(-96.000000, -3570.000000)">
		<g id="Footer" transform="translate(0.000000, 3524.000000)">
			<g id="Footer_x2F_Department_x2F_footer-dept-desktop">
				<g id="Uxd_Wht_StratComm_C" transform="translate(96.000000, 46.000000)">
					<path id="Combined-Shape" class="st0" d="M33.4,0.6c2.1,0,4.2,0.6,6,1.7l-0.5,5.4C37.5,5.9,35.3,4.8,33,5
						c-4.9,0-7.5,3.3-7.9,7.5c-0.4,4.2,1.8,7.4,6.5,7.4c2.5,0,4.8-1,6.5-2.8l-0.5,5.6c-1.9,1.1-4.1,1.7-6.3,1.7
						c-7.7,0-11.3-5.6-10.7-11.8l0,0C21.1,6.1,25.6,0.6,33.4,0.6z M5.8,1L4.6,14.9c-0.3,3,0.9,5.1,4,5.1s4.8-2.2,5-4.8L14.9,1h4.6
						l-1.3,14c-0.5,5.4-4.1,9.4-10,9.4c-4.6,0-7.5-2.9-8.1-7.1C0,16.5,0,15.6,0,14.8L1.2,1H5.8z M47.7,1l-1.7,18.7h6.5
						c0.5,0,2,0,2.4,0c0,0.2-0.4,4.3-0.4,4.3H41L43.1,1H47.7z M68,0l8.6,24h-4.8l-1.1-3.6h-8.8L60.1,24h-4.8L67.7,0H68z M67.3,8.6
						L67.3,8.6c-0.2,0.3-0.3,0.6-0.4,1l0,0c-0.1,0.2-3.2,6.9-3.2,6.9l0,0h5.8c0,0-1.8-5.8-2-6.8C67.3,9.3,67.3,9,67.3,8.6L67.3,8.6z
						"/>
					<path id="Combined-Shape_1_" class="st0" d="M91.3,29.2c3.9,0,6.2,2.4,6.6,5.4h-3.2C94.4,33,93,31.8,91.3,32
						c-2.9,0-4.3,2.5-4.3,5.7s1.7,5.6,4.4,5.6c1.7,0.1,3.2-1.1,3.4-2.8H98c-0.1,1.4-0.7,2.8-1.8,3.8c-1.3,1.2-3.1,1.8-4.8,1.7
						c-4.5,0-7.7-3.5-7.7-8.3C83.7,32.9,86.7,29.2,91.3,29.2z M219.1,33.9c3.3,0,5.9,2.7,5.9,6c0,3.3-2.7,6-6,6
						c-1.6,0-3.2-0.6-4.3-1.7c-1.1-1.2-1.7-2.7-1.7-4.3C213.1,36.5,215.8,33.9,219.1,33.9z M183.6,33.7c3,0,4.8,1.7,5.2,4.2h-3
						c-0.2-1-1.1-1.8-2.1-1.8c-1.8,0-2.8,1.4-2.8,3.6s0.9,3.6,2.8,3.6c1.2,0.1,2.2-0.8,2.3-2h2.9c-0.2,2.4-2.1,4.4-5.1,4.4
						c-3.6,0-5.9-2.6-5.9-6.1S180.2,33.7,183.6,33.7z M104.8,33.9c3.3,0,5.9,2.7,5.9,6c0,3.3-2.7,6-6,6c-1.6,0-3.2-0.6-4.3-1.7
						c-1.1-1.2-1.7-2.7-1.7-4.3C98.8,36.5,101.5,33.9,104.8,33.9z M152.2,34.1v7.2c0,1.4,0.6,2.1,1.9,2.1c0.7,0,1.3-0.3,1.7-0.8
						s0.6-1.2,0.5-1.9v-6.6h3v11.5h-2.9v-1.4h-0.1c-0.7,1.1-2,1.7-3.3,1.7c-2.5,0-4-1.6-4-4.2v-7.7H152.2z M242.9,33.7
						c3,0,4.7,1.5,4.9,3.8H245c-0.1-1.2-0.9-1.7-2.2-1.7s-2,0.5-2,1.3c0,1,1.5,1.1,3.1,1.4c1.9,0.4,4,0.9,4,3.6c0,2.3-2,3.7-4.8,3.7
						c-3.3,0-5.1-1.6-5.3-4h2.8c0.2,1.3,1.1,1.9,2.5,1.9s2.1-0.5,2.1-1.3c0-1.1-1.3-1.2-2.8-1.5l-0.6-0.1c-1.9-0.4-3.7-1-3.7-3.4
						C238.2,34.9,240.3,33.7,242.9,33.7z M195.1,33.8c3.3,0,4.8,1.6,4.8,4.2v5.9c0,0.9,0.1,1.4,0.4,1.6v0.1h-2.9
						c-0.2-0.4-0.3-0.8-0.4-1.3h0c-0.6,0.9-1.4,1.6-3.4,1.6c-2.3,0-4-1.2-4-3.5c0-2.5,2-3.3,4.6-3.7c1.9-0.3,2.8-0.4,2.8-1.3
						s-0.6-1.4-1.9-1.4c-1.4,0-2.1,0.5-2.2,1.6h-2.7C190.3,35.5,191.8,33.8,195.1,33.8z M167.7,33.8c2.4,0,3.9,1.8,3.9,4.3v7.5h-3
						v-7.1c0.1-0.6-0.1-1.1-0.5-1.5c-0.4-0.4-0.9-0.6-1.5-0.6c-0.7,0-1.3,0.3-1.7,0.8c-0.4,0.5-0.7,1.2-0.6,1.8v6.5h-3V34.1h3v1.6
						h0.1C165,34.4,166.3,33.7,167.7,33.8z M232.8,33.8c2.4,0,3.9,1.8,3.9,4.3v7.5h-3v-7.1c0.1-0.6-0.1-1.1-0.5-1.5
						c-0.4-0.4-0.9-0.6-1.5-0.6c-0.7,0-1.3,0.3-1.7,0.8c-0.4,0.5-0.7,1.2-0.6,1.8v6.5h-3V34.1h3l0,1.6h0.1
						C230.1,34.4,231.4,33.7,232.8,33.8z M143.6,33.8c2.4,0,3.8,1.6,3.8,4.1v7.8h-3v-7.2c0-1.3-0.7-2-1.8-2c-1.3,0-2,1-2,2.5v6.7h-3
						v-7.2c0-1.3-0.6-2-1.8-2s-2,1-2,2.5v6.7h-3V34.1h2.9v1.5h0.1c0.7-1.2,2-1.9,3.3-1.9c1.4,0,2.6,0.8,3.2,2h0
						C140.9,34.5,142.2,33.8,143.6,33.8z M125,33.8c2.4,0,3.8,1.6,3.8,4.1v7.8h-3v-7.2c0-1.3-0.6-2-1.8-2c-1.3,0-2,1-2,2.5v6.7h-3
						v-7.2c0-1.3-0.6-2-1.8-2c-1.1,0-2,1-2,2.5v6.7h-3V34.1h2.9v1.5h0.1c0.7-1.2,2-1.9,3.3-1.9c1.4,0,2.6,0.8,3.2,2h0
						C122.3,34.5,123.6,33.8,125,33.8z M176.6,34.1v11.5h-3V34.1H176.6z M211.7,34.1v11.5h-3V34.1H211.7z M205.3,30.5v3.6h2v2h-2
						v6.1c0,0.3,0.1,0.6,0.3,0.9c0.2,0.2,0.5,0.3,0.8,0.3h0.9v2.2h-1.9l0,0c-1.5,0-3.1-0.6-3.1-2.8V36h-1.6l0-2h1.6v-3.6H205.3z
						 M197.1,39.8c-0.7,0.3-1.4,0.5-2.1,0.7c-1.6,0.4-2.4,0.7-2.4,1.8c0,1.1,0.7,1.5,1.8,1.5c1.8,0,2.7-1.1,2.7-2.2h0V39.8z
						 M219,36.1c-1.8,0-2.9,1.5-2.9,3.8s1,3.8,2.9,3.8c1.9,0,2.9-1.5,2.9-3.8C221.9,37.6,220.9,36.1,219,36.1z M104.8,36.1
						c-1.9,0-2.9,1.5-2.9,3.8s1,3.8,2.9,3.8c1.9,0,2.9-1.5,2.9-3.8C107.7,37.6,106.6,36.1,104.8,36.1z M211.7,29.6v2.8h-3v-2.8
						H211.7z M176.6,29.6v2.8h-3v-2.8H176.6z M150.6,14.2L150.6,14.2l0-1.2h2.9v10.6c0.1,1.3-0.4,2.6-1.4,3.5
						c-1.2,0.9-2.6,1.4-4.1,1.3c-3.1,0-5-1.4-5.3-3.6h3c0.2,0.7,0.9,1.3,2.3,1.3c1.7,0,2.5-0.8,2.5-2.4v-1.3h-0.1
						c-0.7,0.9-1.8,1.4-3,1.3c-1.4,0-2.7-0.6-3.7-1.7s-1.4-2.4-1.3-3.8c0-3.4,2-5.6,4.9-5.6C148.7,12.6,149.9,13.2,150.6,14.2z
						 M136.1,12.7c3.7,0,5.6,2.8,5.6,6.9h-8.3c0.2,1.8,1.2,2.9,2.9,2.9c1,0.1,1.9-0.5,2.2-1.4h3c-0.4,2-2.2,3.8-5.2,3.8
						c-3.8,0-5.9-2.7-5.9-6.1S132.8,12.7,136.1,12.7z M170.8,16.9h-3c-0.2-1-1.1-1.8-2.1-1.8c-1.8,0-2.8,1.4-2.8,3.6
						s0.9,3.6,2.8,3.6c1.1,0,2.1-0.8,2.2-2h2.9c-0.2,2.4-2.1,4.4-5.1,4.4c-3.6,0-5.8-2.6-5.8-6.1s2.2-6.1,5.7-6.1
						C168.1,12.5,170.4,14.3,170.8,16.9z M90.2,8.2c3.5,0,5.9,1.8,6.1,5h-3.1c-0.2-1.6-1.4-2.4-3.1-2.4s-2.9,0.7-2.9,1.9
						c0,1.3,1.1,1.7,3.5,2.2c3.3,0.7,5.9,1.5,5.9,5c0,3.3-2.6,5.1-6.2,5.1c-4.4,0-6.8-1.9-6.9-5.3h3.2c0.2,1.9,1.3,2.7,3.6,2.7
						c1.6,0,3.1-0.6,3.1-2.1s-1.5-1.9-3.9-2.5c-2.9-0.6-5.5-1.4-5.5-4.8C84.1,9.8,86.7,8.2,90.2,8.2z M117.7,12.7
						c3.3,0,4.8,1.6,4.8,4.2v5.9c0,0.9,0.1,1.4,0.4,1.6v0.1H120c-0.2-0.4-0.3-0.8-0.4-1.3h0c-0.6,0.9-1.4,1.6-3.4,1.6
						c-2.3,0-4-1.2-4-3.5c0-2.5,2-3.3,4.6-3.7c1.9-0.3,2.8-0.4,2.8-1.3c0-0.9-0.6-1.4-1.9-1.4c-1.4,0-2.1,0.5-2.2,1.6h-2.7
						C112.9,14.5,114.4,12.7,117.7,12.7z M111.8,13v2.7h-0.1c-2-0.2-3.4,0.9-3.4,3.3v5.6h-3V13h3v1.8h0.1c0.7-1.3,1.5-2,2.8-2
						C111.3,12.8,111.6,12.9,111.8,13z M158.5,13v11.5h-3V13H158.5z M102,9.4V13h2v2h-2v6.1c0,0.3,0.1,0.6,0.3,0.9s0.5,0.3,0.9,0.3
						h0.9v2.2h-1.9l0,0c-1.5,0-3.1-0.6-3.1-2.8V15h-1.6l0-2h1.6V9.4H102z M128,9.4V13h2v2h-2v6.1c0,0.3,0.1,0.6,0.3,0.9
						c0.2,0.2,0.5,0.3,0.9,0.3h0.9v2.2h-1.9l0,0c-1.5,0-3.1-0.6-3.1-2.8V15h-1.6l0-2h1.6V9.4H128z M119.7,18.7
						c-0.7,0.3-1.4,0.5-2.1,0.7c-1.6,0.4-2.4,0.7-2.4,1.8c0,1.1,0.7,1.5,1.8,1.5c1.8,0,2.7-1.1,2.7-2.2h0V18.7z M148,15.1
						c-1.5,0-2.6,1.2-2.6,3.1s1,3.1,2.6,3.1c2,0,2.7-1.4,2.7-3.1C150.7,16.6,149.8,15.1,148,15.1z M136.1,15c-1.6,0-2.4,1-2.6,2.5h5
						c0-0.7-0.2-1.3-0.7-1.8C137.4,15.3,136.8,15,136.1,15z M158.5,8.5v2.8h-3V8.5H158.5z"/>
				</g>
			</g>
		</g>
	</g>
</g>
</svg>
