<svg width="48" height="48" xmlns="http://www.w3.org/2000/svg" viewBox="0 0 48 48" style="enable-background:new 0 0 48 48" xml:space="preserve"><title>Instagram</title><style>.instagram--white{fill-rule:evenodd;clip-rule:evenodd;fill:#fff}</style><path class="instagram--white" d="M25.6 8c2.9 0 3.5 0 5 .1 1.7.1 2.9.3 3.9.7 1.1.4 1.9 1 2.8 1.8s1.4 1.8 1.8 2.8c.4 1 .7 2.2.7 3.9.2 1.7.2 2.3.2 5.7v2c0 3.4 0 4-.1 5.6-.1 1.7-.3 2.9-.7 3.9-.4 1.1-1 1.9-1.8 2.8s-1.8 1.4-2.8 1.8c-1 .4-2.2.7-3.9.7-1.7.2-2.3.2-5.7.2h-2c-3.4 0-4 0-5.6-.1-1.7-.1-2.9-.3-3.9-.7-1.1-.4-1.9-1-2.8-1.8s-1.4-1.8-1.8-2.8c-.4-1-.7-2.2-.7-3.9-.2-1.6-.2-2.2-.2-5.1v-3.3c0-2.9 0-3.5.1-5 .1-1.7.3-2.9.7-3.9.4-1.1 1-1.9 1.8-2.8s1.8-1.4 2.8-1.8c1-.4 2.2-.7 3.9-.7 1.6-.1 2.2-.1 5.1-.1h3.2zm-.6 2.9h-2c-3.3 0-3.9 0-5.4.1-1.6.1-2.4.3-3 .6-.7.3-1.3.6-1.8 1.2-.6.6-.9 1.1-1.2 1.8-.2.6-.5 1.4-.6 3-.1 1.5-.1 2.1-.1 5.4v2c0 3.3 0 3.9.1 5.4.1 1.6.3 2.4.6 3 .3.7.6 1.3 1.2 1.8.6.6 1.1.9 1.8 1.2.6.2 1.4.5 3 .6 1.5.1 2.1.1 5.4.1h2c3.3 0 3.9 0 5.4-.1 1.6-.1 2.4-.3 3-.6.7-.3 1.3-.6 1.8-1.2.6-.6.9-1.1 1.2-1.8.2-.6.5-1.4.6-3 .1-1.5.1-2.1.1-5.4v-2c0-3.3 0-3.9-.1-5.4-.1-1.6-.3-2.4-.6-3-.3-.7-.6-1.3-1.2-1.8-.6-.6-1.1-.9-1.8-1.2-.6-.2-1.4-.5-3-.6-1.5-.1-2-.1-5.4-.1zm-1 4.9c4.5 0 8.2 3.7 8.2 8.2 0 4.5-3.7 8.2-8.2 8.2s-8.2-3.7-8.2-8.2c0-4.5 3.7-8.2 8.2-8.2zm0 2.9c-2.9 0-5.3 2.4-5.3 5.3s2.4 5.3 5.3 5.3 5.3-2.4 5.3-5.3-2.4-5.3-5.3-5.3zm8.5-5.2c1.1 0 1.9.9 1.9 1.9 0 1.1-.9 1.9-1.9 1.9-1.1 0-1.9-.9-1.9-1.9 0-1 .9-1.9 1.9-1.9z"/></svg>