<svg width="48" height="48" xmlns="http://www.w3.org/2000/svg" viewBox="0 0 48 48" xml:space="preserve"><title>Snapchat</title><g fill-rule="evenodd" clip-rule="evenodd"><path fill="#FFF" d="M24.2 37.9h-.4c-1.9 0-3-.8-4.2-1.7-.8-.6-1.5-1.1-2.4-1.2-.4-.1-.9-.1-1.3-.1-.7 0-1.3.1-1.8.2-.3.1-.5.1-.7.1-.2 0-.4 0-.5-.3-.1-.3-.1-.5-.2-.7-.1-.6-.2-1-.5-1-2.9-.5-3.8-1.1-4-1.5v-.2c0-.2.1-.3.3-.3 4.5-.7 6.6-5.4 6.6-5.6.3-.6.3-1.1.2-1.5-.3-.7-1.3-1.1-2-1.3-.2-.1-.3-.1-.4-.2-1.3-.5-1.4-1.1-1.4-1.4.1-.5.7-.8 1.2-.8.1 0 .3 0 .4.1.6.3 1.1.4 1.6.4.6 0 .9-.3 1-.3 0-.3 0-.6-.1-1-.1-2.1-.3-4.8.4-6.3 2-4.6 6.3-4.9 7.6-4.9h.7c1.3 0 5.6.4 7.6 4.9.7 1.5.5 4.2.4 6.3v.1c0 .3 0 .6-.1.9 0 0 .3.3.9.3.4 0 1-.2 1.5-.4.2-.1.3-.1.5-.1s.4 0 .5.1c.5.2.8.5.8.8 0 .3-.2.8-1.4 1.3-.1 0-.3.1-.4.2-.7.2-1.7.5-2 1.3-.2.4-.1.9.2 1.5.1.2 2.1 4.8 6.6 5.6.2 0 .3.2.3.3v.2c-.2.4-1 1.1-4 1.5-.2 0-.3.4-.5 1-.1.2-.1.5-.2.7-.1.2-.2.3-.4.3s-.4 0-.7-.1c-.5-.1-1.1-.2-1.8-.2-.4 0-.8 0-1.3.1-.9.1-1.6.7-2.4 1.2-1.2.8-2.3 1.7-4.2 1.7"/><path fill="#030303" d="M24.3 8h-.6c-1.3 0-5.8.4-7.9 5.1-.7 1.6-.5 4.3-.4 6.5v.8c-.1.1-.3.1-.6.1-.4 0-.9-.1-1.5-.4-.1 0-.3-.1-.5-.1-.7 0-1.4.4-1.6 1.1-.1.5.1 1.1 1.6 1.7.1.1.3.1.5.2.6.2 1.5.5 1.8 1.1.1.3.1.7-.2 1.2-.1.2-2 4.7-6.4 5.4-.3 0-.5.3-.5.7 0 .1 0 .2.1.3.3.8 1.7 1.3 4.2 1.7.1.1.2.5.2.8.1.2.1.5.2.8.1.3.3.6.8.6.2 0 .4 0 .7-.1.4-.1 1-.2 1.7-.2.4 0 .8 0 1.2.1.8.1 1.5.6 2.3 1.2 1.1.8 2.4 1.7 4.4 1.7h.4c2 0 3.3-.9 4.4-1.7.8-.6 1.5-1.1 2.3-1.2.4-.1.8-.1 1.2-.1.7 0 1.2.1 1.7.2.3.1.5.1.7.1.4 0 .6-.2.7-.6.1-.3.1-.5.2-.7.1-.2.1-.6.2-.8 2.5-.4 3.9-1 4.2-1.7 0-.1.1-.2.1-.3 0-.3-.2-.6-.6-.7-4.4-.7-6.3-5.2-6.4-5.4-.2-.5-.3-.9-.2-1.2.3-.6 1.2-.9 1.8-1.1.2-.1.3-.1.5-.2 1.1-.4 1.6-1 1.6-1.6 0-.5-.4-.9-1-1.1-.2-.1-.4-.1-.7-.1-.2 0-.4 0-.6.1-.5.2-1 .4-1.4.4-.3 0-.4-.1-.5-.1v-.8c.1-2.2.3-4.9-.4-6.5C30.1 8.4 25.6 8 24.3 8m0 .7c1.2 0 5.4.3 7.3 4.7.6 1.4.5 4.1.3 6.2 0 .3 0 .7-.1 1v.1l.1.1s.4.4 1.1.4c.5 0 1-.2 1.6-.5.1 0 .2-.1.3-.1.1 0 .3 0 .4.1.3.1.5.3.5.5 0 .1-.1.5-1.2.9-.1 0-.3.1-.4.1-.7.2-1.8.6-2.2 1.5-.2.5-.2 1.1.2 1.7.1.3 2.2 5 6.9 5.8v.1c-.1.2-.6.8-3.7 1.3-.5.1-.6.6-.8 1.3 0 .2-.1.5-.2.7 0 .1 0 .1-.1.1s-.4 0-.6-.1c-.4-.1-1.1-.2-1.8-.2-.4 0-.9 0-1.3.1-1 .2-1.7.7-2.6 1.3-1.1.8-2.3 1.6-4 1.6h-.3c-1.8 0-2.9-.8-4-1.6-.8-.6-1.6-1.1-2.6-1.3-.4-.1-.9-.1-1.3-.1-.8 0-1.4.1-1.8.2-.2 0-.5.1-.6.1-.1 0-.1 0-.1-.1-.1-.2-.1-.5-.2-.7-.1-.6-.3-1.2-.8-1.3-3.1-.5-3.6-1.1-3.7-1.3v-.1c4.7-.8 6.8-5.5 6.9-5.8.3-.7.4-1.2.2-1.7-.4-.9-1.5-1.2-2.2-1.5-.2-.1-.3-.1-.4-.1-.9-.4-1.2-.8-1.2-1 .1-.3.5-.5.9-.5h.2c.6.3 1.2.5 1.8.5.8 0 1.2-.4 1.2-.4l.1-.1v-.1c0-.3 0-.6-.1-1-.1-2.1-.3-4.7.3-6.2 1.9-4.4 6.1-4.7 7.3-4.7.1.1.6.1.7.1"/></g></svg>