<svg width="48" height="48" xmlns="http://www.w3.org/2000/svg" viewBox="0 0 48 48" xml:space="preserve"><title>Tiktok</title><g fill-rule="evenodd" clip-rule="evenodd"><path fill="#FE2C55" d="M37.5 15.4c-1.4-.4-2.8-1.2-3.8-2.2l-.5-.5c-1.3-1.5-2-3.4-2-5.3h-5.9v22.3c0 4.1-2.2 6.2-4.9 6.2-.7 0-1.4-.1-2.1-.4-.7-.3-1.2-.7-1.7-1.3-.5-.5-.8-1.2-1-1.9-.2-.7-.2-1.4-.1-2.1s.4-1.4.8-2c.4-.6.9-1.1 1.6-1.5.6-.4 1.3-.6 2-.7.7-.1 1.4 0 2.1.3v-6c-.5-.1-1.1-.2-1.6-.2-2.1 0-4.2.6-6 1.8-1.8 1.2-3.2 2.9-4 4.9-.8 2-1 4.1-.6 6.2.4 2.1 1.5 4 3 5.5s3.4 2.5 5.5 3c2.1.4 4.3.2 6.2-.6 2-.8 3.7-2.2 4.8-4 1.2-1.8 1.8-3.9 1.8-6V18.8c2.3 1.6 5 2.3 7.9 2.4v-5.5c-.4 0-1-.1-1.5-.3"/><path fill="#25F4EE" d="M33.2 12.8c-.4-.3-.8-.6-1.1-.9-1.2-1.2-2.1-2.7-2.3-4.4-.1-.5-.2-1-.2-1.5h-5.9v22.6c0 4.9-2.2 5.9-4.9 5.9-.7 0-1.4-.1-2.1-.4-.7-.3-1.2-.7-1.7-1.3-.5-.5-.8-1.2-1-1.9-.2-.7-.2-1.4-.1-2.1.1-.7.4-1.4.8-2 .4-.6.9-1.1 1.6-1.5.6-.4 1.3-.6 2-.7.7-.1 1.4 0 2.1.3v-6C13.4 17.8 8 23.5 8 29.6c0 2.9 1.1 5.6 3.2 7.6 2 2 4.8 3.2 7.6 3.2 6 0 10.8-3.6 10.8-10.8V17.4c2.3 1.6 5 2.3 7.9 2.4v-5.5c-1.5-.1-3-.6-4.3-1.5"/><path d="M29.6 29.6V17.4c2.3 1.6 5 2.3 7.9 2.4v-4.4c-1.4-.4-2.8-1.2-3.8-2.2l-.5-.5c-.4-.3-.8-.6-1.1-.9-1.2-1.2-2.1-2.7-2.3-4.4h-4.4v22.3c0 4.1-2.2 6.2-4.9 6.2-.8 0-1.5-.2-2.2-.5-.7-.4-1.3-.9-1.7-1.5-1-.5-1.7-1.4-2.2-2.4-.4-1-.5-2.1-.3-3.2.3-1.1.9-2 1.8-2.7.9-.7 1.9-1 3-1 .5 0 1.1.1 1.6.3v-4.7c-2.1 0-4.2.6-5.9 1.8s-3.1 2.8-4 4.7-1.1 4.1-.7 6.1 1.3 4 2.8 5.5c1.8 1.3 4 2 6.3 2 5.8.1 10.6-3.6 10.6-10.7"/></g></svg>