<svg width="48" height="48" xmlns="http://www.w3.org/2000/svg" viewBox="0 0 48 48" xml:space="preserve"><title>Overcast</title><path fill-rule="evenodd" clip-rule="evenodd" fill="#FFF" d="M1.8 31.2c0-2 .6-3.8 1.8-5.2s2.8-2.6 4.8-3c.6-2.4 1.6-4.2 3.6-5.8 1.8-1.6 4-2.2 6.4-2.2s4.4.8 6.4 2.2c1.8 1.4 3 3.4 3.6 5.6h.6c2.4 0 4.4.8 6 2.4 1.6 1.6 2.4 3.6 2.4 6s-.8 4.4-2.4 6c-1.6 1.6-3.6 2.4-6 2.4H10.4c-1.2 0-2.2-.2-3.4-.6s-2-1-2.8-1.8-1.4-1.6-1.8-2.8c-.4-1.2-.6-2-.6-3.2zm2.8 0c0 1.6.6 2.8 1.6 4s2.4 1.6 4 1.6h18.6c1.6 0 2.8-.6 4-1.6 1.2-1 1.6-2.4 1.6-4s-.6-2.8-1.6-4c-1-1-2.4-1.6-4-1.6H26c-.2 0-.2-.2-.2-.2l-.2-1c-.2-1.8-1-3.4-2.4-4.6-1.4-1.2-3-1.8-4.8-1.8-1.8 0-3.6.6-5 1.8-1.4 1.2-2.2 2.8-2.4 4.6l-.2.8c0 .2-.2.2-.4.2l-.8.2c-1.4.2-2.6.8-3.6 1.8-.8 1-1.4 2.4-1.4 3.8zm17.8-17.4c-.2.2-.2.2.2.4.8.4 1.6.8 2.2 1.2h.4c1.2-1.2 2.6-1.8 4.2-1.8s3 .6 4.2 1.6c1.2 1 1.8 2.4 2 4l.2 1.2h2.8c1.2 0 2.4.4 3.4 1.4s1.4 2 1.4 3.4c0 1.2-.4 2.2-1.2 3.2s-1.8 1.4-3 1.6c-.2 0-.2 0-.2.4v2.2c0 .2 0 .4.2.4 2-.2 3.8-1 5-2.4s2-3.2 2-5.2c0-2.2-.8-4-2.2-5.4-1.6-1.6-3.2-2.2-5.4-2.2h-.2c-.6-2-1.6-3.6-3.2-5s-3.6-2-5.6-2c-3-.2-5.4.8-7.2 3z"/></svg>