<svg width="48" height="48" xmlns="http://www.w3.org/2000/svg" viewBox="0 0 48 48" xml:space="preserve"><title>Partly Sunny</title><path fill-rule="evenodd" clip-rule="evenodd" d="M4 26.7c0 .5.2.8.5 1.2s.7.5 1.2.5h2.9c.5 0 .8-.2 1.2-.5.3-.3.5-.7.5-1.2s-.2-.8-.5-1.2c-.4-.3-.8-.5-1.3-.5H5.7c-.5 0-.8.2-1.2.5s-.5.7-.5 1.2zm3 10.4c0 1.7.5 3 1.8 4.2 1.2 1.2 2.5 1.8 4.2 1.8h11.6c1.7 0 3-.7 4.2-1.7 1.2-1.2 1.7-2.5 1.7-4.2 0-.8-.2-1.5-.3-2 1.3-.8 2.5-2 3.4-3.5.8-1.5 1.2-3 1.2-4.7 0-1.3-.3-2.7-.8-3.9-.5-1.2-1.3-2.4-2.2-3.2-.8-.8-2-1.7-3.2-2.2s-2.5-.8-3.9-.8c-1.8 0-3.5.5-5 1.3S17 20.4 16 21.9c-.8 1.5-1.3 3.2-1.3 5v.5c-1.7 1-2.9 2.4-3.4 4.2-1.3.3-2.4 1.2-3 2.2-.9.8-1.3 1.9-1.3 3.3zm2.5-23.9c0 .5.2.8.5 1.2l2.7 2.9c.8.7 1.5.7 2.4 0 .3-.3.5-.7.5-1.2s-.2-.8-.5-1.2l-2.7-2.7c-.5-.3-.8-.5-1.3-.5s-.8.2-1.2.5c-.4.4-.4.7-.4 1zm.7 23.9c0-.7.2-1.3.7-1.8.5-.5 1-.8 1.7-.8l1-.2c.2 0 .3-.2.3-.3l.2-1c.2-1 .5-1.8 1.2-2.4.7-.7 1.5-1 2.5-1s1.8.3 2.5 1 1.2 1.5 1.3 2.4l.2 1c.2.5.3.5.5.5h2.2c.7 0 1.3.3 1.8.8s.8 1.2.8 1.8c0 .8-.3 1.3-.8 1.8s-1.2.8-1.8.8H12.9c-.7 0-1.3-.3-1.8-.8-.5-.3-.9-1-.9-1.8zm7.6-10.8c.2-1.8.8-3.4 2.2-4.7 1.3-1.2 2.9-1.8 4.7-1.8 1.8 0 3.5.7 4.7 2 1.3 1.3 2 3 2 4.9 0 1.2-.3 2.4-.8 3.2-.5 1-1.3 1.8-2.4 2.5-1-.8-2.2-1.2-3.4-1.2-.5-1.5-1.3-2.7-2.5-3.5-1.2-.8-2.7-1.3-4.2-1.3-.2-.1-.3-.1-.3-.1zM23 11.7c0 .5.2.8.5 1.2.3.3.7.5 1.2.5s.8-.2 1.2-.5c.3-.3.5-.7.5-1.2v-4c0-.5-.2-.8-.5-1.2s-.7-.5-1.2-.5-.8.2-1.2.5-.5.7-.5 1.2v4zm10.6 25.6c0 .5.2.8.5 1.2l2.7 2.7c.7.7 1.5.7 2.4 0 .3-.3.5-.7.5-1.2s-.2-.8-.5-1.2l-2.9-2.7c-.3-.3-.7-.3-1.2-.3s-.8.2-1.2.5c-.2.1-.3.5-.3 1zm0-21.2c0 .5.2.8.5 1.2.3.3.7.5 1.2.5s.8-.2 1.2-.5l2.7-2.9c.3-.3.5-.7.5-1.2s-.2-.8-.5-1c-.3-.2-.7-.5-1.2-.5s-.8.2-1.2.5l-2.7 2.7c-.4.3-.5.7-.5 1.2zm4.2 10.6c0 .5.2.8.5 1.2.3.3.7.5 1.2.5h2.9c.5 0 .8-.2 1.2-.5.3-.3.5-.7.5-1.2s-.2-.8-.5-1.2c-.3-.3-.7-.5-1.2-.5h-2.9c-.5 0-.8.2-1.2.5-.2.3-.5.7-.5 1.2z"/></svg>