<svg width="48" height="48" xmlns="http://www.w3.org/2000/svg" viewBox="0 0 48 48" xml:space="preserve"><title>Partly Cloudy</title><path fill-rule="evenodd" clip-rule="evenodd" d="M0 34.7c0 1.6.4 3 1.3 4.5.9 1.4 1.8 2.5 3.2 3.2 1.4.7 2.9 1.3 4.5 1.3h19.3c1.6 0 3-.4 4.5-1.3 1.4-.9 2.5-1.8 3.2-3.2.7-1.4 1.3-2.9 1.3-4.5 0-1.3-.2-2.3-.7-3.6 1.4-1.6 2-3.6 2-5.9 0-1.3-.2-2.5-.7-3.6-.5-1.1-1.1-2.1-2-3s-1.8-1.6-3-2c-1.1-.5-2.3-.7-3.6-.7-2.7 0-5 1.1-7 3-1.4-.7-3-1.3-4.8-1.3-2.5 0-4.7.7-6.6 2.3S7.5 23.6 7 26.1c-2 .5-3.6 1.4-4.8 3S0 32.7 0 34.7zm3 0c0-1.4.5-2.9 1.4-3.9 1.1-1.1 2.3-1.8 3.8-2h.9c.2 0 .4-.2.4-.4l.2-.9c.2-2 1.1-3.6 2.5-4.8 1.4-1.3 3-2 5-2s3.8.7 5.2 2c1.4 1.3 2.3 2.9 2.5 4.8l.2 1.1c0 .2.2.4.4.4h2.9c1.6 0 2.9.5 4.1 1.8 1.1 1.1 1.8 2.5 1.8 4.1 0 1.6-.5 3-1.8 4.1-1.1 1.1-2.5 1.8-4.1 1.8H8.8c-1.6 0-2.9-.5-4.1-1.8C3.6 37.7 3 36.3 3 34.7zm12-22.1c0 .4.2.7.4 1.1l1.3 1.1c.4.4.9.5 1.1.4.4 0 .7-.2 1.1-.5.4-.4.4-.7.4-1.1 0-.4-.2-.5-.5-.7l-1.1-1.3c-.4-.4-.7-.4-1.1-.4-.4 0-.7.2-1.1.5-.3.2-.5.6-.5.9zm9.5 8.1c1.3-1.3 2.7-1.8 4.3-1.8 1.8 0 3.2.5 4.5 1.8 1.3 1.3 1.8 2.7 1.8 4.5 0 1.1-.4 2.1-.9 3.2-1.8-1.8-3.8-2.5-6.3-2.5h-.4c-.3-2-1.4-3.8-3-5.2zm2.9-9.5c0 .5.2.9.4 1.1s.7.4 1.1.4c.5 0 .9-.2 1.1-.4.4-.4.4-.7.4-1.1V7.4c0-.4-.2-.7-.4-1.1-.3-.3-.6-.3-1-.3s-.7.2-1.1.4c-.4.2-.4.7-.4 1.1l-.1 3.7zm10 4.1c0 .5.2.9.4 1.1.4.4.7.4 1.1.4.4 0 .7-.2 1.1-.4l2.5-2.5c.4-.4.4-.7.4-1.1s-.2-.7-.4-1.1c-.4-.4-.7-.4-1.1-.4s-.7.2-1.1.4l-2.7 2.5c-.2.2-.2.6-.2 1.1zm1.3 21.1c0 .4.2.9.4 1.1l1.1 1.1c.2.4.5.4 1.1.4.5 0 .7-.2 1.1-.4.4-.2.4-.7.4-1.1s-.2-.7-.4-1.1l-1.1-1.1c-.5-.3-.8-.3-1.2-.3-.4 0-.7.2-1.1.4-.1.3-.3.7-.3 1zm2.7-11.2c0 .4.2.7.5 1.1.4.4.7.4 1.1.4h3.6c.4 0 .7-.2 1.1-.4.4-.2.4-.7.4-1.1s-.2-.7-.4-1.1c-.2-.4-.7-.4-1.1-.4H43c-.4 0-.7.2-1.1.4-.3.3-.5.7-.5 1.1z"/></svg>