<svg width="48" height="48" xmlns="http://www.w3.org/2000/svg" viewBox="0 0 48 48" xml:space="preserve"><title>Light Rain</title><path fill-rule="evenodd" clip-rule="evenodd" fill="#FFF" d="M4 27c0-2.2.8-4.4 2.2-6.2 1.4-1.8 3.2-3 5.4-3.4.6-2.8 2-5 4.2-6.8S20.6 8 23.4 8s5.2.8 7.4 2.6 3.6 3.8 4.2 6.6h.6c1.8 0 3.4.4 5 1.2 1.6.8 2.8 2 3.6 3.6s1.4 3.2 1.4 5c0 2.6-1 5-2.8 7s-4 3-6.8 3c-.2 0-.4-.2-.4-.4V34c0-.2.2-.4.4-.4 1.8 0 3.2-.8 4.4-2 1.2-1.2 1.8-2.8 1.8-4.6s-.6-3.2-2-4.6c-1.2-1.2-2.8-2-4.6-2h-3.2c-.2 0-.4-.2-.4-.4l-.2-1.2c-.2-2.2-1.2-4-2.8-5.4s-3.6-2.2-5.8-2.2-4.2.8-5.8 2.2-2.6 3.2-2.8 5.4l.2 1.4c0 .2-.2.4-.4.4h-1c-1.6 0-3 .8-4.2 2C8 23.8 7.4 25.2 7.4 27s.6 3.2 1.8 4.6 2.6 2 4.4 2c.2 0 .4.2.4.4v2.6c0 .2-.2.4-.4.4-2.6-.2-5-1.2-6.8-3S4 29.6 4 27zm12 1.8c0-.4.2-1.2.8-2 .4-.8 1-1.6 1.4-2 .4-.4.6-.8.8-.8l.8.8c.6.6 1 1.2 1.4 2 .4.8.6 1.4.6 2 0 .8-.2 1.4-.8 2-.6.6-1.2.8-2 .8s-1.4-.2-2-.8c-.8-.6-1-1.2-1-2zm6 8c0-.6.2-1.2.4-2s.8-1.4 1.2-2c.4-.6.8-1 1.4-1.6l1.2-1.2.4-.4.4.4c.8.6 1.6 1.6 2.6 3 .4.6.8 1.4 1.2 2 .4.6.4 1.4.4 2 0 1.2-.4 2.4-1.4 3.2s-2 1.4-3.4 1.4c-1.2 0-2.4-.4-3.2-1.4-.8-1-1.2-2.2-1.2-3.4zm2.8-13.4c0-.8.6-1.8 2-3.2l.4.4c.4.4.6.8 1 1.4.2.6.4 1 .4 1.2 0 .6-.2 1-.6 1.4s-.8.6-1.4.6-1-.2-1.4-.6c-.2-.2-.4-.6-.4-1.2z"/></svg>