<svg width="48" height="48" xmlns="http://www.w3.org/2000/svg" viewBox="0 0 48 48" xml:space="preserve"><title>Sun</title><path fill-rule="evenodd" clip-rule="evenodd" d="M24 34.7c.7 0 1.3.6 1.3 1.3v2.7c0 .7-.6 1.3-1.3 1.3s-1.3-.6-1.3-1.3V36c0-.7.6-1.3 1.3-1.3zm9.5-3.1 1.9 1.9c.5.5.5 1.4 0 1.9s-1.4.5-1.9 0l-1.9-1.9c-.5-.5-.5-1.4 0-1.9s1.4-.5 1.9 0zm-16.9 0c.5.5.5 1.4 0 1.9l-1.9 1.9c-.5.5-1.4.5-1.9 0s-.5-1.4 0-1.9l1.9-1.9c.5-.5 1.3-.5 1.9 0zM24 14.7c5.2 0 9.3 4.2 9.3 9.3s-4.2 9.3-9.3 9.3-9.3-4.2-9.3-9.3 4.1-9.3 9.3-9.3zm0 2.6a6.7 6.7 0 1 0 0 13.4 6.7 6.7 0 0 0 0-13.4zm-12 5.4c.7 0 1.3.6 1.3 1.3s-.6 1.3-1.3 1.3H9.3c-.7 0-1.3-.6-1.3-1.3s.6-1.3 1.3-1.3H12zm26.7 0c.7 0 1.3.6 1.3 1.3s-.6 1.3-1.3 1.3H36c-.7 0-1.3-.6-1.3-1.3s.6-1.3 1.3-1.3h2.7zm-3.3-9.8c.5.5.5 1.4 0 1.9l-1.9 1.9c-.5.5-1.4.5-1.9 0s-.5-1.4 0-1.9l1.9-1.9c.5-.5 1.4-.5 1.9 0zm-20.7 0 1.9 1.9c.5.5.5 1.4 0 1.9s-1.4.5-1.9 0l-1.9-1.9c-.5-.5-.5-1.4 0-1.9s1.3-.5 1.9 0zM24 8c.7 0 1.3.6 1.3 1.3V12c0 .7-.6 1.3-1.3 1.3s-1.3-.6-1.3-1.3V9.3c0-.7.6-1.3 1.3-1.3z"/></svg>