<svg width="40" height="38" xmlns="http://www.w3.org/2000/svg"><path d="M0 20.672c0 .504.168.84.504 1.177.336.336.672.504 1.177.504h2.857c.504 0 .84-.168 1.176-.504.336-.336.504-.673.504-1.177s-.168-.84-.504-1.176c-.336-.336-.672-.504-1.176-.504H1.68c-.505 0-.84.168-1.177.504-.336.336-.504.672-.504 1.176zm3.025 10.42c0 1.681.504 3.026 1.849 4.202 1.176 1.177 2.521 1.849 4.202 1.849h11.596c1.68 0 3.025-.672 4.202-1.68 1.176-1.177 1.68-2.522 1.68-4.202 0-.84-.167-1.513-.336-2.017a9.706 9.706 0 003.362-3.53c.84-1.512 1.176-3.025 1.176-4.706 0-1.344-.336-2.689-.84-3.865-.504-1.177-1.345-2.353-2.185-3.193-.84-.84-2.017-1.681-3.193-2.185-1.177-.504-2.521-.84-3.866-.84-1.848 0-3.53.504-5.042 1.344-1.512.84-2.689 2.185-3.697 3.697-.84 1.513-1.345 3.194-1.345 5.042v.505c-1.68 1.008-2.857 2.353-3.361 4.201-1.345.336-2.353 1.177-3.025 2.185-.84.672-1.177 1.849-1.177 3.193zM5.546 7.227c0 .504.168.84.504 1.176l2.69 2.858c.84.672 1.512.672 2.352 0 .337-.337.505-.673.505-1.177s-.168-.84-.505-1.176l-2.689-2.69c-.504-.336-.84-.504-1.344-.504-.504 0-.84.168-1.177.504-.336.337-.336.673-.336 1.009zm.672 23.865c0-.672.169-1.344.673-1.848.504-.505 1.008-.84 1.68-.84l1.009-.169a.361.361 0 00.336-.336l.168-1.008c.168-1.009.504-1.849 1.177-2.353.672-.672 1.512-1.009 2.52-1.009 1.009 0 1.85.337 2.522 1.009.672.672 1.176 1.512 1.344 2.353l.168 1.008c.168.504.336.504.504.504h2.185c.672 0 1.345.336 1.849.84.504.505.84 1.177.84 1.85 0 .84-.336 1.344-.84 1.848s-1.177.84-1.849.84H8.908c-.673 0-1.345-.336-1.85-.84-.503-.336-.84-1.008-.84-1.849zm7.564-10.756c.168-1.849.84-3.361 2.184-4.706 1.345-1.176 2.858-1.848 4.706-1.848 1.849 0 3.53.672 4.706 2.016 1.345 1.345 2.017 3.026 2.017 4.874 0 1.177-.336 2.353-.84 3.194-.505 1.008-1.345 1.848-2.353 2.52-1.009-.84-2.185-1.176-3.362-1.176-.504-1.513-1.344-2.689-2.52-3.53a7.354 7.354 0 00-4.202-1.344h-.336zm5.21-14.622c0 .504.168.84.504 1.177.336.336.672.504 1.176.504.504 0 .84-.168 1.177-.504.336-.336.504-.673.504-1.177V1.681c0-.505-.168-.84-.504-1.177C21.513.168 21.176 0 20.672 0s-.84.168-1.176.504c-.336.336-.504.672-.504 1.177v4.033zM29.58 31.261c0 .504.168.84.504 1.176l2.69 2.69c.671.671 1.512.671 2.352 0 .336-.337.504-.673.504-1.177 0-.505-.168-.84-.504-1.177l-2.857-2.689c-.336-.336-.672-.336-1.177-.336-.504 0-.84.168-1.176.504-.168.168-.336.504-.336 1.009zm0-21.177c0 .504.168.84.504 1.177.336.336.672.504 1.177.504.504 0 .84-.168 1.176-.504l2.69-2.858c.335-.336.503-.672.503-1.176 0-.504-.168-.84-.504-1.009-.336-.168-.672-.504-1.176-.504-.505 0-.84.168-1.177.504l-2.689 2.69c-.336.336-.504.672-.504 1.176zm4.202 10.588c0 .504.168.84.504 1.177.336.336.672.504 1.176.504h2.857c.505 0 .84-.168 1.177-.504.336-.336.504-.673.504-1.177s-.168-.84-.504-1.176c-.336-.336-.672-.504-1.177-.504h-2.857c-.504 0-.84.168-1.176.504-.168.336-.504.672-.504 1.176z" fill="#000" fill-rule="evenodd"/></svg>