<svg id="Unboxed_White" data-name="Unboxed White" xmlns="http://www.w3.org/2000/svg" viewBox="0 0 289 89"><defs><style>.cls-1{fill:#fff}</style></defs><path class="cls-1" d="M111.88 41V29.22h3.52V41c0 1.79.89 3.05 3.25 3.05a2.91 2.91 0 003.27-3.1V29.22h3.51V41c0 3.71-2.27 5.87-6.71 5.87s-6.84-2.13-6.84-5.87zM130.94 35.81h.06a4 4 0 013.68-2c2.57 0 4.29 1.94 4.29 4.65v8.12h-3.27v-7.66a2.07 2.07 0 00-2.16-2.28A2.59 2.59 0 00131 39.5v7h-3.3V34.12h3.22zM140.43 40.35c0-3.88 2.2-6.57 5.31-6.57a4 4 0 013.51 1.84h.07v-6.4h3.3v17.33h-3.17v-1.62a4.15 4.15 0 01-3.71 2c-3.18-.01-5.31-2.56-5.31-6.58zm9 .07c0-2.38-.78-4-2.89-4-1.82 0-2.74 1.59-2.74 3.9s.95 3.8 2.64 3.8c1.94.03 2.96-1.42 2.96-3.7zM154.11 40.32c0-3.68 2.49-6.54 6.13-6.54 4 0 6.14 3 6.14 7.49h-9c.24 1.92 1.31 3.1 3.17 3.1a2.32 2.32 0 002.4-1.52h3.25c-.46 2.2-2.42 4.07-5.62 4.07-4.15 0-6.47-2.92-6.47-6.6zM157.4 39h5.53a2.62 2.62 0 00-2.64-2.67c-1.75-.01-2.59 1.04-2.89 2.67zM171 36.11h.07c.75-1.41 1.6-2.14 3.06-2.14a2.17 2.17 0 01.77.1V37h-.07c-2.16-.21-3.71.93-3.71 3.54v6.06h-3.3V34.12H171zM175.81 46.92h3.27c.27.78 1 1.38 2.5 1.38 1.87 0 2.77-.9 2.77-2.59v-1.36h-.08A4 4 0 01181 45.8a5.59 5.59 0 01-5.48-5.94c0-3.71 2.23-6.08 5.39-6.08a4 4 0 013.44 1.65v-1.31h3.17v11.49a4.82 4.82 0 01-1.47 3.78 6.54 6.54 0 01-4.49 1.41c-3.33 0-5.41-1.46-5.75-3.88zm8.7-7.13c0-1.82-1-3.37-2.95-3.37-1.68 0-2.79 1.31-2.79 3.39s1.11 3.35 2.81 3.35c2.09 0 2.93-1.53 2.93-3.37zM192.87 36.11h.07c.75-1.41 1.6-2.14 3.06-2.14a2.17 2.17 0 01.77.1V37h-.07c-2.16-.21-3.71.93-3.71 3.54v6.06h-3.3V34.12h3.18zM205.29 45.17c-.63.95-1.53 1.68-3.66 1.68-2.55 0-4.34-1.34-4.34-3.81 0-2.74 2.23-3.61 5-4 2.06-.29 3-.46 3-1.41s-.7-1.48-2.08-1.48c-1.56 0-2.31.56-2.4 1.75h-2.94c.1-2.18 1.72-4.1 5.36-4.1s5.24 1.67 5.24 4.58v6.33c0 .95.14 1.5.43 1.72v.12h-3.17a3.21 3.21 0 01-.44-1.38zm0-3V40.3a9.43 9.43 0 01-2.29.7c-1.72.38-2.57.77-2.57 1.94s.78 1.57 1.94 1.57c1.9.03 2.94-1.13 2.94-2.34zM209.82 40.35c0-3.88 2.21-6.57 5.31-6.57a4 4 0 013.52 1.84h.07v-6.4H222v17.33h-3.18v-1.62h-.05a4.13 4.13 0 01-3.71 2c-3.06-.01-5.24-2.56-5.24-6.58zm9 .07c0-2.38-.77-4-2.88-4-1.82 0-2.74 1.59-2.74 3.9s.94 3.8 2.64 3.8c1.93.03 2.95-1.42 2.95-3.7zM232 46.55V45.1h-.07a4 4 0 01-3.57 1.79c-2.76 0-4.31-1.77-4.31-4.48v-8.29h3.27v7.73c0 1.46.66 2.26 2.06 2.26a2.52 2.52 0 002.5-2.82v-7.17h3.3v12.43zM244.71 45.17h-.05c-.63.95-1.52 1.68-3.66 1.68-2.54 0-4.34-1.34-4.34-3.81 0-2.74 2.23-3.61 5-4 2.06-.29 3-.46 3-1.41s-.7-1.48-2.08-1.48c-1.55 0-2.31.56-2.4 1.75h-2.94c.1-2.18 1.73-4.1 5.36-4.1s5.24 1.67 5.24 4.58v6.33c0 .95.14 1.5.44 1.72v.12h-3.18a3.35 3.35 0 01-.39-1.38zm0-3V40.3a9.51 9.51 0 01-2.31.73c-1.72.38-2.57.77-2.57 1.94s.78 1.57 1.94 1.57c1.92 0 2.97-1.16 2.97-2.37zM248.79 34.12h1.72v-3.88h3.23v3.88h2.13v2.18h-2.13v6.59a1.09 1.09 0 001.26 1.24h1v2.42h-2.06c-1.6 0-3.37-.63-3.37-3V36.3h-1.72zM256.45 40.32c0-3.68 2.49-6.54 6.13-6.54 4 0 6.14 3 6.14 7.49h-9c.24 1.92 1.31 3.1 3.17 3.1a2.32 2.32 0 002.4-1.52h3.25c-.46 2.2-2.42 4.07-5.62 4.07-4.15 0-6.47-2.92-6.47-6.6zm3.29-1.32h5.53a2.62 2.62 0 00-2.64-2.67c-1.75-.01-2.63 1.04-2.89 2.67zM116.8 52h3.64l6.11 17.33h-3.66l-1.16-3.68h-6.26l-1.14 3.68h-3.56zm-.51 11h4.59l-1.56-5c-.29-.92-.7-2.66-.7-2.66h-.05s-.43 1.74-.72 2.66zM126.73 63.1c0-3.88 2.2-6.57 5.31-6.57a4 4 0 013.51 1.84h.08V52h3.29v17.3h-3.17v-1.62h-.05a4.15 4.15 0 01-3.71 2c-3.13-.01-5.26-2.56-5.26-6.58zm9 .07c0-2.38-.78-4-2.89-4-1.82 0-2.74 1.59-2.74 3.9s1 3.8 2.65 3.8c1.93.03 2.95-1.42 2.95-3.7zM141 56.87h3.18v1.67h.07a4.06 4.06 0 013.61-2 3.72 3.72 0 013.45 2.18 4.34 4.34 0 013.74-2.18c2.62 0 4.1 1.69 4.1 4.41v8.35h-3.3v-7.8c0-1.41-.7-2.14-1.92-2.14-1.38 0-2.23 1.07-2.23 2.72v7.22h-3.3v-7.8c0-1.41-.7-2.14-1.91-2.14s-2.23 1.07-2.23 2.72v7.22H141zM161.27 52h3.3v3h-3.3zm0 4.9h3.3v12.4h-3.3zM165.93 65.28h3c.22 1.43 1.24 2.06 2.72 2.06s2.28-.56 2.28-1.43c0-1.19-1.58-1.31-3.27-1.65-2.24-.43-4.42-1-4.42-3.76s2.23-4 5.07-4c3.27 0 5.09 1.62 5.33 4.12h-3c-.14-1.33-1-1.82-2.4-1.82s-2.13.49-2.13 1.38c0 1.07 1.65 1.17 3.42 1.53 2.08.44 4.38 1 4.38 3.93 0 2.5-2.13 4-5.23 4-3.54.03-5.56-1.72-5.75-4.36zM177.73 65.28h3.05c.22 1.43 1.24 2.06 2.72 2.06s2.28-.56 2.28-1.43c0-1.19-1.58-1.31-3.28-1.65-2.23-.43-4.41-1-4.41-3.76s2.23-4 5.07-4c3.27 0 5.09 1.62 5.33 4.12h-3c-.14-1.33-1-1.82-2.4-1.82s-2.13.49-2.13 1.38c0 1.07 1.65 1.17 3.42 1.53 2.08.44 4.38 1 4.38 3.93 0 2.5-2.13 4-5.23 4-3.6.03-5.61-1.72-5.8-4.36zM190.3 52h3.3v3h-3.3zm0 4.9h3.3v12.4h-3.3zM195.05 63.1a6.5 6.5 0 116.49 6.57 6.32 6.32 0 01-6.49-6.57zm9.65 0c0-2.43-1.14-4.07-3.16-4.07s-3.15 1.64-3.15 4.07 1.12 4.05 3.15 4.05 3.16-1.63 3.16-4.05zM212.75 58.56h.08a4 4 0 013.68-2c2.57 0 4.29 1.94 4.29 4.65v8.09h-3.29v-7.63a2.07 2.07 0 00-2.16-2.28 2.59 2.59 0 00-2.52 2.86v7h-3.3V56.87h3.22z"/><g id="_logo_" data-name="&lt;logo&gt;"><path class="cls-1" d="M20.07 39.18a25.11 25.11 0 01-.07-2.81l1.34-15.21h5L25 36.5c-.3 3.32 1 5.69 4.32 5.69s5.18-2.41 5.48-5.35l1.41-15.68h5l-1.43 15.48c-.56 6-4.51 10.42-10.9 10.42-5 0-8.2-3.22-8.81-7.88M42.3 34c.65-7.3 5.57-13.35 14.08-13.35a11.68 11.68 0 016.54 1.89l-.57 6a7.36 7.36 0 00-6.45-3c-5.29 0-8.19 3.68-8.61 8.33s1.94 8.22 7.07 8.22a9.5 9.5 0 007.1-3.09l-.56 6.19a14.31 14.31 0 01-6.9 1.93c-8.42 0-12.28-6.25-11.67-13.09M66.89 21.16h5L70 41.81h7.12c.5 0 2.19 0 2.65-.05 0 .25-.45 4.77-.45 4.77H64.64zM92.76 30.63a6.8 6.8 0 00.37-1.06h.08a5.79 5.79 0 00.18 1.08c.28 1.15 2.21 7.58 2.21 7.58h-6.27s3.36-7.42 3.43-7.59M94 20h-.34L80.09 46.53h5.28l1.91-4h9.58l1.19 4h5.27z"/></g></svg>