<?xml version="1.0" encoding="UTF-8"?>
<svg width="20px" height="20px" viewBox="0 0 20 20" version="1.1" xmlns="http://www.w3.org/2000/svg" xmlns:xlink="http://www.w3.org/1999/xlink">
    <!-- Generator: sketchtool 52.6 (67491) - http://www.bohemiancoding.com/sketch -->
    <title>458508A3-65F6-4EF3-9A5B-BBAEB74D5124</title>
    <desc>Created with sketchtool.</desc>
    <g id="Homepage" stroke="none" stroke-width="1" fill="none" fill-rule="evenodd">
        <g id="Desktop-(XL)" transform="translate(-109.000000, -780.000000)">
            <g id="Hero" transform="translate(95.000000, 328.000000)">
                <g id="Watch-Button" transform="translate(0.000000, 444.000000)">
                    <g id="Content" transform="translate(12.000000, 6.000000)">
                        <g id="Icon/Play">
                            <rect id="Container" x="0" y="0" width="24" height="24"></rect>
                            <polygon id="Path" points="0 0 24 0 24 24 0 24"></polygon>
                            <path d="M10,16.5 L16,12 L10,7.5 L10,16.5 Z M12,2 C6.48,2 2,6.48 2,12 C2,17.52 6.48,22 12,22 C17.52,22 22,17.52 22,12 C22,6.48 17.52,2 12,2 Z M12,20.5 C7.314375,20.5 3.5,16.685625 3.5,12 C3.5,7.314375 7.314375,3.5 12,3.5 C16.685625,3.5 20.5,7.314375 20.5,12 C20.5,16.685625 16.685625,20.5 12,20.5 Z" id="Shape" fill="#FFFFFF" fill-rule="evenodd"></path>
                        </g>
                    </g>
                </g>
            </g>
        </g>
    </g>
</svg>