<?xml version="1.0" encoding="UTF-8"?>
<svg width="40px" height="40px" viewBox="0 0 40 40" version="1.1" xmlns="http://www.w3.org/2000/svg" xmlns:xlink="http://www.w3.org/1999/xlink">
    <title>Icon/Social/instagram-white</title>
    <g id="Icon/Social/instagram-white" stroke="none" stroke-width="1" fill="none" fill-rule="evenodd">
        <path d="M12.9394593,4.00086741 C14.2796,4.00391556 14.5873333,4.01576 15.2984,4.04816 C16.14992,4.08688 16.73136,4.22224 17.24032,4.42 C17.7664,4.62448 18.21248,4.89792 18.65728,5.34272 C19.10208,5.78752 19.37568,6.2336 19.58,6.75968 C19.77776,7.26864 19.91296,7.85008 19.95184,8.7016 C19.99072,9.55488 20,9.82736 20,12 C20,14.17264 19.99072,14.44512 19.95184,15.2984 C19.91296,16.14992 19.77776,16.73136 19.58,17.24032 C19.37568,17.7664 19.10208,18.21248 18.65728,18.65728 C18.21248,19.10208 17.7664,19.37552 17.24032,19.58 C16.73136,19.77776 16.14992,19.91312 15.2984,19.95184 C14.44512,19.99072 14.17264,20 12,20 C9.82736,20 9.55488,19.99072 8.7016,19.95184 C7.85008,19.91312 7.26864,19.77776 6.75968,19.58 C6.2336,19.37552 5.78752,19.10208 5.34272,18.65728 C4.89792,18.21248 4.62432,17.7664 4.42,17.24032 C4.22224,16.73136 4.08704,16.14992 4.04816,15.2984 C4.01576,14.5873333 4.00391556,14.2796 4.00086741,12.9394593 L4.00086741,11.0605407 C4.00391556,9.7204 4.01576,9.41266667 4.04816,8.7016 C4.08704,7.85008 4.22224,7.26864 4.42,6.75968 C4.62432,6.2336 4.89792,5.78752 5.34272,5.34272 C5.78752,4.89792 6.2336,4.62448 6.75968,4.42 C7.26864,4.22224 7.85008,4.08688 8.7016,4.04816 C9.41266667,4.01576 9.7204,4.00391556 11.0605407,4.00086741 Z M12.7176166,5.44186563 L11.2823834,5.44186563 C9.7913725,5.4439525 9.50544,5.4544 8.76736,5.488 C7.98736,5.52368 7.56368,5.65392 7.28192,5.76352 C6.90848,5.90864 6.64192,6.08208 6.36208,6.36192 C6.08208,6.64192 5.90864,6.90848 5.76352,7.28176 C5.65408,7.56368 5.52352,7.98736 5.48816,8.76736 C5.45442,9.50544 5.443955,9.7913725 5.44186594,11.2823834 L5.44186594,12.7176166 C5.443955,14.2086275 5.45442,14.49456 5.48816,15.23264 C5.52352,16.01264 5.65408,16.43632 5.76352,16.71824 C5.90864,17.09152 6.08208,17.35808 6.36208,17.63808 C6.64192,17.91792 6.90848,18.09136 7.28192,18.23648 C7.56368,18.34608 7.98736,18.47632 8.76736,18.512 C9.5053,18.5456 9.791215,18.5560475 11.2823309,18.5581344 L12.7176691,18.5581344 C14.208785,18.5560475 14.4947,18.5456 15.23264,18.512 C16.01264,18.47632 16.43632,18.34608 16.71808,18.23648 C17.09152,18.09136 17.35808,17.91792 17.63792,17.63808 C17.91792,17.35808 18.09136,17.09152 18.23648,16.71824 C18.34592,16.43632 18.47648,16.01264 18.51184,15.23264 C18.54558,14.49456 18.556045,14.2086275 18.5581341,12.7176166 L18.5581341,11.2823834 C18.556045,9.7913725 18.54558,9.50544 18.51184,8.76736 C18.47648,7.98736 18.34592,7.56368 18.23648,7.28176 C18.09136,6.90848 17.91792,6.64192 17.63792,6.36192 C17.35808,6.08208 17.09152,5.90864 16.71808,5.76352 C16.43632,5.65392 16.01264,5.52368 15.23264,5.488 C14.49456,5.4544 14.2086275,5.4439525 12.7176166,5.44186563 Z M12,7.89192 C14.26896,7.89192 16.10816,9.73112 16.10816,11.99992 C16.10816,14.26888 14.26896,16.10808 12,16.10808 C9.73104,16.10808 7.89184,14.26888 7.89184,11.99992 C7.89184,9.73112 9.73104,7.89192 12,7.89192 Z M12,9.33336 C10.5272,9.33336 9.33328,10.52728 9.33328,11.99992 C9.33328,13.47272 10.5272,14.66664 12,14.66664 C13.4728,14.66664 14.66672,13.47272 14.66672,11.99992 C14.66672,10.52728 13.4728,9.33336 12,9.33336 Z M16.270464,6.769616 C16.800544,6.769616 17.230464,7.199376 17.230464,7.729616 C17.230464,8.259696 16.800544,8.689616 16.270464,8.689616 C15.740224,8.689616 15.310464,8.259696 15.310464,7.729616 C15.310464,7.199376 15.740224,6.769616 16.270464,6.769616 Z" id="Shape" fill="#FFFFFF"></path>
    </g>
</svg>
