<?xml version="1.0" encoding="UTF-8"?>
<svg width="24px" height="24px" viewBox="0 0 24 24" version="1.1" xmlns="http://www.w3.org/2000/svg" xmlns:xlink="http://www.w3.org/1999/xlink">
    <title>Icon/Social/snapchat-white</title>
    <g id="Icon/Social/snapchat-white" stroke="none" stroke-width="1" fill="none" fill-rule="evenodd">
        <path d="M12.0989132,18.9277736 C12.0584604,18.9277736 12.0189132,18.926717 11.9792151,18.9247547 C11.9538566,18.926717 11.9274415,18.9277736 11.9008755,18.9277736 C10.9727245,18.9277736 10.3769509,18.5051321 9.8008,18.0962264 C9.40306415,17.8141132 9.02766792,17.5476981 8.58540377,17.4738868 C8.36955472,17.4381132 8.15476226,17.4198491 7.94706415,17.4198491 C7.57317736,17.4198491 7.27823396,17.4778113 7.06268679,17.5200755 C6.93181887,17.5457358 6.81891321,17.5677736 6.73302642,17.5677736 C6.64336604,17.5677736 6.54615849,17.5483019 6.50404528,17.4035472 C6.46721509,17.2781132 6.4408,17.1567547 6.41529057,17.0390189 C6.34947925,16.7365283 6.30268679,16.550566 6.17649811,16.5310943 C4.70419623,16.302717 4.28291321,15.9916226 4.18887547,15.7707925 C4.17559245,15.7392453 4.16804528,15.7075472 4.16623396,15.6761509 C4.16155472,15.5913208 4.2213283,15.5164528 4.3048,15.5028679 C6.56789434,15.1286792 7.58283774,12.8070189 7.62495094,12.7084528 C7.62615849,12.7057358 7.62736604,12.7031698 7.62857358,12.7003019 C7.76713962,12.4186415 7.79415849,12.1741132 7.70947925,11.9736604 C7.55430943,11.6062642 7.04759245,11.4447547 6.71234717,11.3380377 C6.63038491,11.3119245 6.55249811,11.2873208 6.49121509,11.2630189 C5.82223396,10.9975094 5.76638491,10.7249057 5.7928,10.5860377 C5.83763019,10.3495094 6.15264906,10.1845283 6.40744151,10.1845283 C6.4773283,10.1845283 6.53891321,10.1969057 6.59068679,10.2212075 C6.89166792,10.3627925 7.16291321,10.4343396 7.39702642,10.4343396 C7.72034717,10.4343396 7.86147925,10.2980377 7.87868679,10.2800755 C7.87053585,10.1264151 7.8602717,9.96581132 7.85000755,9.80007547 C7.78238491,8.72611321 7.69906415,7.39177358 8.03747925,6.62996226 C9.05196981,4.34679245 11.203366,4.16943396 11.8385358,4.16943396 C11.8549887,4.16943396 12.1171774,4.16656604 12.1171774,4.16656604 L12.1547623,4.16641509 C12.7914415,4.16641509 14.947517,4.34422642 15.9627623,6.62875472 C16.3013283,7.39071698 16.2174038,8.72641509 16.150083,9.7994717 L16.1472151,9.84611321 C16.1378566,9.99554717 16.1288,10.1407547 16.1212528,10.2799245 C16.1374038,10.2963774 16.2672151,10.4218113 16.5604981,10.433283 L16.5608,10.433283 C16.7835925,10.4246792 17.0395925,10.353283 17.3206491,10.2212075 C17.4030642,10.182566 17.4945358,10.174566 17.5567245,10.174566 C17.6518189,10.174566 17.7482717,10.1929811 17.8282717,10.2264906 L17.8331019,10.2284528 C18.0604226,10.3092075 18.2092528,10.4692075 18.2125736,10.6363019 C18.2154415,10.7935849 18.0957434,11.0302642 17.5088755,11.2630189 C17.4480453,11.2870189 17.3701585,11.3117736 17.2877434,11.3380377 C16.9520453,11.4449057 16.4457811,11.6062642 16.2906113,11.9735094 C16.2057811,12.1739623 16.2329509,12.4183396 16.371517,12.7001509 C16.3725736,12.7030189 16.3739321,12.7055849 16.3751396,12.7084528 C16.4171019,12.8068679 17.4311396,15.1279245 19.6952906,15.502566 C19.7789132,15.5163019 19.8385358,15.5911698 19.8340075,15.676 C19.8320453,15.7078491 19.8244981,15.74 19.8109132,15.7710943 C19.7174792,15.9902642 19.2964981,16.3012075 17.8237434,16.5295849 C17.7034415,16.5481509 17.6568,16.705434 17.5851019,17.0355472 C17.5588377,17.1555472 17.5324226,17.273434 17.4960453,17.3975094 C17.4646491,17.5051321 17.3977811,17.5555472 17.2853283,17.5555472 L17.2670642,17.5555472 C17.1891774,17.5555472 17.078083,17.5415094 16.9375547,17.5138868 C16.6881962,17.4649811 16.4088,17.4198491 16.0530264,17.4198491 C15.8453283,17.4198491 15.6303849,17.4381132 15.4143849,17.4738868 C14.9725736,17.5476981 14.5974792,17.8136604 14.2004981,18.0953208 C13.6232906,18.5051321 13.027366,18.9277736 12.0989132,18.9277736" id="Icon" fill="#FFFFFF"></path>
    </g>
</svg>
