<?xml version="1.0" encoding="UTF-8"?>
<svg width="40px" height="40px" viewBox="0 0 40 40" version="1.1" xmlns="http://www.w3.org/2000/svg" xmlns:xlink="http://www.w3.org/1999/xlink">
    <title>Icon/Social/tiktok-black</title>
    <g id="Icon/Social/tiktok-black" stroke="none" stroke-width="1" fill="none" fill-rule="evenodd">
        <path d="M19.0383424,7.92714768 C18.0346953,7.89675883 17.125242,7.41705743 16.4395717,6.77330281 C16.0658238,6.41585541 15.7700855,5.98470631 15.5707533,5.50756643 C15.3713046,5.03019368 15.2726864,4.51695976 15.2809531,4 L12.486576,4 L12.486576,14.4147598 C12.486576,16.1717244 11.4386846,17.2091368 10.1382514,17.2091368 C9.82528117,17.2160064 9.51417386,17.1604681 9.22309291,17.0454329 C8.93201197,16.9306306 8.66689544,16.7587764 8.44311241,16.5398835 C8.21932938,16.3211071 8.04165357,16.0598328 7.9202146,15.7713134 C7.79889206,15.4829104 7.73636788,15.1729674 7.73636788,14.8601136 C7.73636788,14.547027 7.79889206,14.2373168 7.9202146,13.9489138 C8.04165357,13.6603944 8.21932938,13.3990037 8.44311241,13.1802273 C8.66689544,12.9614508 8.93201197,12.7895966 9.22309291,12.6745615 C9.51417386,12.5596427 9.82528117,12.5042209 10.1382514,12.510974 C10.3969641,12.5131862 10.6534647,12.5583619 10.8973905,12.6451041 L10.8973905,9.79926388 C10.6478759,9.74500639 10.3934712,9.71811051 10.1382514,9.71904197 C9.12156388,9.71962414 8.1280464,10.0213004 7.2829802,10.5864632 C6.437914,11.1515095 5.77937247,11.9545436 5.39072119,12.8939201 C5.00195348,13.8332965 4.90042445,14.8669831 5.09905808,15.8637607 C5.29769172,16.8608876 5.7874063,17.7765118 6.50649267,18.4952489 C7.2254626,19.2138695 8.14143612,19.7032348 9.13856301,19.9014027 C10.1355735,20.0995706 11.1691437,19.9975759 12.1081708,19.6084589 C13.0474308,19.2192254 13.8501156,18.560451 14.4148126,17.7150355 C14.9796261,16.8698529 15.2809531,15.8761026 15.2809531,14.859415 L15.2809531,9.41620136 C16.3637742,10.170916 17.6574544,10.5202132 19.0383424,10.5433832 L19.0383424,7.92714768 Z" id="Fill-1" fill="#000000"></path>
    </g>
</svg>
