<?xml version="1.0" encoding="UTF-8"?>
<svg width="48px" height="48px" version="1.1" id="Layer_1" xmlns="http://www.w3.org/2000/svg" xmlns:xlink="http://www.w3.org/1999/xlink" x="0px" y="0px"
   viewBox="0 0 48 48" style="enable-background:new 0 0 48 48;" xml:space="preserve">
   <title>Download</title>
<style type="text/css">
  .st0-white{fill-rule:evenodd;clip-rule:evenodd;fill:#fff;}
</style>
<path class="st0-white" d="M24,4c11,0,20,9,20,20s-9,20-20,20S4,35,4,24S13,4,24,4z M24,7C14.6,7,7,14.6,7,24s7.6,17,17,17s17-7.6,17-17
  S33.4,7,24,7z M25.7,10.7V31l9.3-9.3l2.3,2.4L24,37.3L10.7,24l2.4-2.4l9.3,9.3V10.7H25.7z"/>
</svg>
