<?xml version="1.0" encoding="UTF-8"?>
<svg width="28px" height="40px" viewBox="0 0 28 40" version="1.1" xmlns="http://www.w3.org/2000/svg" xmlns:xlink="http://www.w3.org/1999/xlink">
    <title>Location Black</title>
    <g id="Iconography" stroke="none" stroke-width="1" fill="none" fill-rule="evenodd">
        <g id="Icons-v2" transform="translate(-319.000000, -320.000000)" fill="#000000">
            <g id="Denotive-Icons" transform="translate(95.000000, 176.000000)">
                <g id="location" transform="translate(214.000000, 140.000000)">
                    <path d="M24,4 C16.26,4 10,10.26 10,18 C10,28.5 24,44 24,44 C24,44 38,28.5 38,18 C38,10.26 31.74,4 24,4 Z M24,23 C21.24,23 19,20.76 19,18 C19,15.24 21.24,13 24,13 C26.76,13 29,15.24 29,18 C29,20.76 26.76,23 24,23 Z" id="Shape"></path>
                </g>
            </g>
        </g>
    </g>
</svg>
