<?xml version="1.0" encoding="UTF-8"?>
<svg width="14px" height="14px" viewBox="0 0 14 14" version="1.1" xmlns="http://www.w3.org/2000/svg" xmlns:xlink="http://www.w3.org/1999/xlink">
    <!-- Generator: sketchtool 64 (101010) - https://sketch.com -->
    <title>54916B7C-0200-4D75-B8CB-1ABD7885E35D</title>
    <desc>Created with sketchtool.</desc>
    <g id="Page-1" stroke="none" stroke-width="1" fill="none" fill-rule="evenodd">
        <g id="Home-(Stack)" transform="translate(-49.000000, -3498.000000)" fill="#666666" fill-rule="nonzero">
            <g id="Past" transform="translate(0.000000, 3094.000000)">
                <g id="Card/Event-Card/past-event-card" transform="translate(24.000000, 99.000000)">
                    <g id="Card/Event-Card/event-card">
                        <g id="Content" transform="translate(0.000000, 184.000000)">
                            <g id="Header-Group" transform="translate(24.000000, 24.000000)">
                                <g id="Location-(required)" transform="translate(1.000000, 97.000000)">
                                    <g id="Location-Icon-(required)">
                                        <path d="M5.66666667,10 L9.66666667,7 L5.66666667,4 L5.66666667,10 Z M7,0.333333333 C3.32,0.333333333 0.333333333,3.32 0.333333333,7 C0.333333333,10.68 3.32,13.6666667 7,13.6666667 C10.68,13.6666667 13.6666667,10.68 13.6666667,7 C13.6666667,3.32 10.68,0.333333333 7,0.333333333 Z M7,12.6666667 C3.87625,12.6666667 1.33333333,10.12375 1.33333333,7 C1.33333333,3.87625 3.87625,1.33333333 7,1.33333333 C10.12375,1.33333333 12.6666667,3.87625 12.6666667,7 C12.6666667,10.12375 10.12375,12.6666667 7,12.6666667 Z" id="Shape"></path>
                                    </g>
                                </g>
                            </g>
                        </g>
                    </g>
                </g>
            </g>
        </g>
    </g>
</svg>