<?xml version="1.0" encoding="utf-8"?>
<svg version="1.1" id="Layer_1" xmlns="http://www.w3.org/2000/svg" xmlns:xlink="http://www.w3.org/1999/xlink" x="0px" y="0px"
	 viewBox="0 0 107.5 35" style="enable-background:new 0 0 107.5 35;" xml:space="preserve">
<style type="text/css">
	.st0{fill-rule:evenodd;clip-rule:evenodd;fill:#FFFFFE;}
</style>
<g id="Logo_x2F_Campus-Logo_x2F_Campus-Logo-White">
	<path id="UCLA-Logotype" class="st0" d="M47,0.9c2.9,0,5.7,0.7,8.4,2.4l-0.7,7.8c-2.5-3.3-5.5-3.9-8.3-3.9
		C39.5,7.2,35.8,12,35.2,18c-0.5,5.8,2.5,10.6,9.1,10.6c2.9,0,6-0.8,9.2-4l-0.7,8c-3.1,1.7-6,2.5-9,2.5c-10.7,0-15.7-7.9-15.1-16.6
		l0-0.3C29.6,8.7,36,0.9,47,0.9z M8.2,1.5L6.4,21.3C6,25.6,7.7,28.6,12,28.6c4.4,0,6.7-3.1,7.1-6.9l1.8-20.2h6.4l-1.8,20
		c-0.7,7.7-5.8,13.5-14.1,13.5C5,34.9,0.9,30.8,0.1,24.8C-0.1,23.6,0,21.9,0,21.1L1.7,1.5H8.2z M66.9,1.5l-2.3,26.7h9.2
		c0.6,0,2.8,0,3.4-0.1c0,0.3-0.6,6.2-0.6,6.2h-19l2.9-32.7H66.9z M95.6,0l12,34.2h-6.8L99.2,29H86.8l-2.5,5.2h-6.8L95.1,0L95.6,0z
		 M94.5,12.3c0,0-0.1,0-0.1,0c-0.1,0.3-0.3,0.9-0.5,1.4c-0.1,0.2-4.4,9.8-4.4,9.8l0,0h8.1c0,0-2.5-8.3-2.8-9.8
		C94.6,13.2,94.5,12.8,94.5,12.3z"/>
</g>
</svg>
