<?xml version="1.0" encoding="utf-8"?>
<!-- UCLA Generated: Adobe Illustrator export SVG version1.1 - IDs removed, inline styles added, classes changed, titles added. DCP reviewed -->
<svg width="48px" height="48px" version="1.1"  xmlns="http://www.w3.org/2000/svg" xmlns:xlink="http://www.w3.org/1999/xlink" x="0px" y="0px"
	 viewBox="0 0 48 48" style="enable-background:new 0 0 48 48;" xml:space="preserve">
  <title>Instagram</title>
  <style type="text/css">
  	.instagram--black{fill-rule:evenodd;clip-rule:evenodd;}
  </style>
  <g>
  	<path class="instagram--black" d="M25.6,8c2.9,0,3.5,0,5,0.1c1.7,0.1,2.9,0.3,3.9,0.7c1.1,0.4,1.9,1,2.8,1.8s1.4,1.8,1.8,2.8
  		c0.4,1,0.7,2.2,0.7,3.9C40,19,40,19.6,40,23V25c0,3.4,0,4-0.1,5.6c-0.1,1.7-0.3,2.9-0.7,3.9c-0.4,1.1-1,1.9-1.8,2.8
  		s-1.8,1.4-2.8,1.8c-1,0.4-2.2,0.7-3.9,0.7C29,40,28.4,40,25,40H23c-3.4,0-4,0-5.6-0.1c-1.7-0.1-2.9-0.3-3.9-0.7
  		c-1.1-0.4-1.9-1-2.8-1.8s-1.4-1.8-1.8-2.8c-0.4-1-0.7-2.2-0.7-3.9C8,29.1,8,28.5,8,25.6v-3.3c0-2.9,0-3.5,0.1-5
  		c0.1-1.7,0.3-2.9,0.7-3.9c0.4-1.1,1-1.9,1.8-2.8s1.8-1.4,2.8-1.8c1-0.4,2.2-0.7,3.9-0.7C18.9,8,19.5,8,22.4,8H25.6z M25,10.9h-2
  		c-3.3,0-3.9,0-5.4,0.1c-1.6,0.1-2.4,0.3-3,0.6c-0.7,0.3-1.3,0.6-1.8,1.2c-0.6,0.6-0.9,1.1-1.2,1.8c-0.2,0.6-0.5,1.4-0.6,3
  		c-0.1,1.5-0.1,2.1-0.1,5.4v2c0,3.3,0,3.9,0.1,5.4c0.1,1.6,0.3,2.4,0.6,3c0.3,0.7,0.6,1.3,1.2,1.8c0.6,0.6,1.1,0.9,1.8,1.2
  		c0.6,0.2,1.4,0.5,3,0.6c1.5,0.1,2.1,0.1,5.4,0.1h2c3.3,0,3.9,0,5.4-0.1c1.6-0.1,2.4-0.3,3-0.6c0.7-0.3,1.3-0.6,1.8-1.2
  		c0.6-0.6,0.9-1.1,1.2-1.8c0.2-0.6,0.5-1.4,0.6-3c0.1-1.5,0.1-2.1,0.1-5.4v-2c0-3.3,0-3.9-0.1-5.4c-0.1-1.6-0.3-2.4-0.6-3
  		c-0.3-0.7-0.6-1.3-1.2-1.8c-0.6-0.6-1.1-0.9-1.8-1.2c-0.6-0.2-1.4-0.5-3-0.6C28.9,10.9,28.4,10.9,25,10.9z M24,15.8
  		c4.5,0,8.2,3.7,8.2,8.2c0,4.5-3.7,8.2-8.2,8.2s-8.2-3.7-8.2-8.2C15.8,19.5,19.5,15.8,24,15.8z M24,18.7c-2.9,0-5.3,2.4-5.3,5.3
  		c0,2.9,2.4,5.3,5.3,5.3s5.3-2.4,5.3-5.3C29.3,21.1,26.9,18.7,24,18.7z M32.5,13.5c1.1,0,1.9,0.9,1.9,1.9c0,1.1-0.9,1.9-1.9,1.9
  		c-1.1,0-1.9-0.9-1.9-1.9C30.6,14.4,31.5,13.5,32.5,13.5z"/>
  </g>
</svg>
