<?xml version="1.0" encoding="utf-8"?>
<!-- UCLA Generated: Adobe Illustrator export SVG version1.1 - IDs removed, inline styles added, classes chagend, titles added. DCP Reviewed -->
<svg width="48px" height="48px" version="1.1" xmlns="http://www.w3.org/2000/svg" xmlns:xlink="http://www.w3.org/1999/xlink" x="0px" y="0px"
	 viewBox="0 0 48 48" enable-background="new 0 0 48 48" xml:space="preserve">
  <title>Linkedin</title>
  <g>
  	<path fill-rule="evenodd" clip-rule="evenodd" fill="#FFFFFF" d="M21,33.6h4v-6.4c0-1.7,0.3-3.3,2.4-3.3
  		c2.1,0,2.1,1.9,2.1,3.4v6.3h4v-7.1c0-3.5-0.8-6.2-4.8-6.2c-2,0-3.3,1.1-3.8,2.1h-0.1v-1.8H21V33.6z M16.4,14.1
  		c-1.3,0-2.3,1-2.3,2.3c0,1.3,1,2.3,2.3,2.3c1.3,0,2.3-1,2.3-2.3C18.8,15.2,17.7,14.1,16.4,14.1L16.4,14.1z M14.4,33.6h4v-13h-4
  		V33.6z M9.8,40c-1,0-1.8-0.8-1.8-1.8V9.8C8,8.8,8.8,8,9.8,8h28.5c1,0,1.8,0.8,1.8,1.8v28.5c0,1-0.8,1.8-1.8,1.8H9.8z"/>
  </g>
</svg>
