<?xml version="1.0" encoding="utf-8"?>
<!-- UCLA Generated: Adobe Illustrator export SVG version1.1 - IDs removed, inline styles added, classes chagend, titles added. DCP Reviewed -->
<svg width="48px" height="48px" version="1.1" id="Layer_1" xmlns="http://www.w3.org/2000/svg" xmlns:xlink="http://www.w3.org/1999/xlink" x="0px" y="0px"
	 viewBox="0 0 48 48" enable-background="new 0 0 48 48" xml:space="preserve">
  <title>Snapchat</title>
  <g>
  	<path fill-rule="evenodd" clip-rule="evenodd" fill="#FFFFFF" d="M24.2,37.9c-0.1,0-0.2,0-0.2,0c-0.1,0-0.1,0-0.2,0
  		c-1.9,0-3-0.8-4.2-1.7c-0.8-0.6-1.5-1.1-2.4-1.2c-0.4-0.1-0.9-0.1-1.3-0.1c-0.7,0-1.3,0.1-1.8,0.2c-0.3,0.1-0.5,0.1-0.7,0.1
  		c-0.2,0-0.4,0-0.5-0.3c-0.1-0.3-0.1-0.5-0.2-0.7c-0.1-0.6-0.2-1-0.5-1c-2.9-0.5-3.8-1.1-4-1.5c0-0.1,0-0.1,0-0.2
  		c0-0.2,0.1-0.3,0.3-0.3c4.5-0.7,6.6-5.4,6.6-5.6c0,0,0,0,0,0c0.3-0.6,0.3-1.1,0.2-1.5c-0.3-0.7-1.3-1.1-2-1.3
  		c-0.2-0.1-0.3-0.1-0.4-0.2c-1.3-0.5-1.4-1.1-1.4-1.4c0.1-0.5,0.7-0.8,1.2-0.8c0.1,0,0.3,0,0.4,0.1c0.6,0.3,1.1,0.4,1.6,0.4
  		c0.6,0,0.9-0.3,1-0.3c0-0.3,0-0.6-0.1-1c-0.1-2.1-0.3-4.8,0.4-6.3c2-4.6,6.3-4.9,7.6-4.9c0,0,0.6,0,0.6,0l0.1,0
  		c1.3,0,5.6,0.4,7.6,4.9c0.7,1.5,0.5,4.2,0.4,6.3l0,0.1c0,0.3,0,0.6-0.1,0.9c0,0,0.3,0.3,0.9,0.3h0c0.4,0,1-0.2,1.5-0.4
  		c0.2-0.1,0.3-0.1,0.5-0.1c0.2,0,0.4,0,0.5,0.1l0,0c0.5,0.2,0.8,0.5,0.8,0.8c0,0.3-0.2,0.8-1.4,1.3c-0.1,0-0.3,0.1-0.4,0.2
  		c-0.7,0.2-1.7,0.5-2,1.3c-0.2,0.4-0.1,0.9,0.2,1.5c0,0,0,0,0,0c0.1,0.2,2.1,4.8,6.6,5.6c0.2,0,0.3,0.2,0.3,0.3c0,0.1,0,0.1,0,0.2
  		c-0.2,0.4-1,1.1-4,1.5c-0.2,0-0.3,0.4-0.5,1c-0.1,0.2-0.1,0.5-0.2,0.7c-0.1,0.2-0.2,0.3-0.4,0.3h0c-0.2,0-0.4,0-0.7-0.1
  		c-0.5-0.1-1.1-0.2-1.8-0.2c-0.4,0-0.8,0-1.3,0.1c-0.9,0.1-1.6,0.7-2.4,1.2C27.2,37,26.1,37.9,24.2,37.9"/>
  </g>
</svg>
