<?xml version="1.0" encoding="utf-8"?>
<!-- UCLA Generated: Adobe Illustrator export SVG version1.1 - IDs removed, inline styles added, classes chagend, titles added. DCP Reviewed -->
<svg idth="48px" height="48px" version="1.1" xmlns="http://www.w3.org/2000/svg" xmlns:xlink="http://www.w3.org/1999/xlink" x="0px" y="0px"
	 viewBox="0 0 48 48" enable-background="new 0 0 48 48" xml:space="preserve">
   <title>Tiktok</title>
  <g>
  	<path fill-rule="evenodd" clip-rule="evenodd" d="M38.1,15.9c-2-0.1-3.8-1-5.2-2.3c-0.7-0.7-1.3-1.6-1.7-2.5
  		c-0.4-1-0.6-2-0.6-3H25v20.8c0,3.5-2.1,5.6-4.7,5.6c-0.6,0-1.2-0.1-1.8-0.3c-0.6-0.2-1.1-0.6-1.6-1c-0.4-0.4-0.8-1-1-1.5
  		c-0.2-0.6-0.4-1.2-0.4-1.8c0-0.6,0.1-1.2,0.4-1.8c0.2-0.6,0.6-1.1,1-1.5c0.4-0.4,1-0.8,1.6-1c0.6-0.2,1.2-0.3,1.8-0.3
  		c0.5,0,1,0.1,1.5,0.3v-5.7c-0.5-0.1-1-0.2-1.5-0.2c-2,0-4,0.6-5.7,1.7c-1.7,1.1-3,2.7-3.8,4.6c-0.8,1.9-1,3.9-0.6,5.9
  		c0.4,2,1.4,3.8,2.8,5.3c1.4,1.4,3.3,2.4,5.3,2.8c2,0.4,4.1,0.2,5.9-0.6c1.9-0.8,3.5-2.1,4.6-3.8c1.1-1.7,1.7-3.7,1.7-5.7V18.8
  		c2.2,1.5,4.8,2.2,7.5,2.3V15.9z"/>
  </g>
</svg>
