<svg width="48" height="48" xmlns="http://www.w3.org/2000/svg"><g fill="none" fill-rule="evenodd"><path d="M24.198 37.856c-.081 0-.16-.003-.24-.006-.05.003-.103.006-.156.006-1.857 0-3.048-.846-4.2-1.664-.796-.564-1.547-1.097-2.431-1.244a7.838 7.838 0 00-1.277-.108c-.748 0-1.338.116-1.769.2-.261.051-.487.096-.659.096-.18 0-.374-.04-.458-.329-.074-.25-.126-.493-.177-.729-.132-.605-.226-.977-.478-1.016-2.945-.457-3.787-1.079-3.975-1.52a.572.572 0 01-.046-.19c-.009-.17.11-.32.278-.346 4.526-.749 6.556-5.392 6.64-5.59l.007-.015c.277-.564.331-1.053.162-1.454-.31-.734-1.324-1.057-1.994-1.27-.164-.053-.32-.102-.443-.151-1.338-.531-1.45-1.076-1.396-1.354.09-.473.72-.803 1.229-.803.14 0 .263.025.366.073.602.284 1.145.427 1.613.427.647 0 .929-.273.963-.309-.016-.307-.036-.628-.057-.96-.135-2.148-.302-4.816.375-6.34 2.029-4.566 6.332-4.921 7.602-4.921l.557-.006h.076c1.273 0 5.585.355 7.616 4.925.677 1.523.509 4.195.374 6.34l-.006.094c-.018.3-.036.59-.051.868.032.033.291.284.878.307.446-.018.958-.16 1.52-.425a1.14 1.14 0 01.472-.093c.19 0 .384.037.544.104l.01.004c.454.161.752.481.758.816.006.314-.234.788-1.407 1.253-.122.048-.278.098-.443.15-.67.214-1.683.537-1.994 1.271-.17.4-.115.89.162 1.453l.007.017c.084.197 2.112 4.839 6.64 5.588a.333.333 0 01.278.347.56.56 0 01-.046.19c-.187.439-1.029 1.06-3.975 1.517-.24.037-.333.352-.477 1.012-.052.24-.105.476-.178.724-.063.215-.196.316-.421.316h-.037c-.156 0-.378-.028-.659-.083a8.768 8.768 0 00-1.769-.188c-.415 0-.845.036-1.277.108-.884.147-1.634.68-2.428 1.243-1.154.82-2.346 1.665-4.203 1.665" fill="#FFF"/><path d="M24.31 8h-.08l-.554.006c-1.32 0-5.794.369-7.904 5.119-.71 1.598-.54 4.312-.403 6.492.016.258.033.525.047.782-.109.061-.308.137-.622.137-.42 0-.914-.133-1.472-.395a1.18 1.18 0 00-.507-.105c-.653 0-1.434.432-1.555 1.074-.088.463.118 1.138 1.6 1.726.134.052.295.103.464.158.613.195 1.539.49 1.79 1.083.13.308.078.704-.154 1.177l-.015.032c-.081.19-2.04 4.672-6.39 5.39a.666.666 0 00-.554.695c.006.101.03.202.07.3.327.765 1.704 1.327 4.211 1.717.084.114.171.516.224.76.053.242.107.49.184.754.075.258.272.567.776.567.204 0 .444-.047.723-.102.417-.082.99-.194 1.705-.194.397 0 .809.035 1.223.103.809.136 1.497.623 2.292 1.188 1.14.81 2.43 1.725 4.393 1.725.054 0 .108-.002.162-.006.063.003.146.006.234.006 1.963 0 3.253-.916 4.392-1.725.798-.565 1.485-1.053 2.293-1.188a7.478 7.478 0 011.223-.103c.683 0 1.224.087 1.706.181.302.06.545.09.722.09h.037c.373 0 .635-.197.74-.556.075-.257.13-.5.183-.746.053-.244.14-.644.223-.757 2.508-.39 3.885-.95 4.21-1.714a.884.884 0 00.072-.3.665.665 0 00-.554-.694c-4.351-.72-6.309-5.201-6.39-5.391l-.015-.033c-.232-.472-.284-.868-.154-1.176.251-.594 1.177-.888 1.789-1.083.171-.055.333-.106.465-.158 1.084-.43 1.629-.959 1.617-1.57-.01-.48-.382-.909-.974-1.121h-.002a1.766 1.766 0 00-.668-.129c-.158 0-.393.022-.612.125-.516.242-.98.374-1.38.392a1.224 1.224 0 01-.537-.134l.042-.687.005-.093c.138-2.182.308-4.898-.403-6.497C30.117 8.37 25.633 8 24.31 8m0 .666c1.205 0 5.356.324 7.312 4.727.644 1.45.48 4.075.347 6.185-.02.334-.041.659-.058.969l-.007.133.089.099c.035.04.37.391 1.115.42h.025c.492-.018 1.046-.172 1.649-.455a.802.802 0 01.331-.062c.143 0 .294.027.419.08l.019.007c.315.111.539.32.542.51.002.108-.078.493-1.197.937-.11.044-.254.09-.42.143-.73.232-1.83.582-2.2 1.458-.21.494-.152 1.076.17 1.73.132.31 2.21 5.013 6.89 5.787a.224.224 0 01-.019.075c-.08.187-.584.835-3.72 1.32-.491.077-.612.629-.751 1.271-.05.23-.102.461-.172.701-.021.073-.025.077-.103.077h-.037c-.139 0-.35-.029-.595-.077a9.146 9.146 0 00-1.833-.194c-.434 0-.882.038-1.331.112-.96.16-1.741.715-2.568 1.302-1.11.788-2.258 1.602-4.01 1.602-.075 0-.15-.003-.225-.006l-.02-.001-.02.002a1.551 1.551 0 01-.13.005c-1.75 0-2.899-.814-4.009-1.602-.827-.587-1.608-1.141-2.568-1.302a8.155 8.155 0 00-1.33-.112c-.779 0-1.389.119-1.834.206-.244.048-.456.09-.595.09-.113 0-.116-.007-.14-.09-.07-.24-.122-.477-.171-.707-.14-.642-.261-1.197-.752-1.273-3.137-.486-3.64-1.135-3.72-1.322a.221.221 0 01-.02-.077c4.68-.774 6.76-5.475 6.892-5.786.321-.655.378-1.237.17-1.73-.37-.877-1.472-1.227-2.2-1.46a6.805 6.805 0 01-.42-.142c-.946-.375-1.237-.752-1.193-.981.05-.264.505-.533.903-.533.09 0 .168.015.226.042.646.304 1.236.458 1.753.458.813 0 1.176-.38 1.214-.423l.088-.1-.007-.132c-.017-.31-.037-.633-.058-.968-.132-2.11-.297-4.734.347-6.183 1.949-4.386 6.08-4.724 7.3-4.724l.56-.006h.072" fill="#030303"/></g></svg>