<svg width="48" height="48" xmlns="http://www.w3.org/2000/svg"><g fill="none" fill-rule="evenodd"><path d="M37.525 15.446a9.017 9.017 0 01-3.842-2.19 7.765 7.765 0 01-.49-.502 7.964 7.964 0 01-1.96-5.331h-5.877v22.286c0 4.085-2.204 6.245-4.94 6.245a4.945 4.945 0 01-4.814-3.615 4.94 4.94 0 014.286-6.247c.719-.069 1.444.02 2.125.262v-5.996a7.23 7.23 0 00-1.597-.169h-.024a10.814 10.814 0 00-7.612 18.467A10.813 10.813 0 0031.228 31V18.816c2.276 1.577 4.996 2.318 7.9 2.373v-5.503c-.541-.02-1.079-.1-1.603-.24" fill="#FE2C55"/><path d="M33.195 12.754c-.4-.279-.78-.586-1.136-.92a7.723 7.723 0 01-2.317-4.409c-.08-.47-.12-.947-.12-1.425h-5.878v22.64c0 4.867-2.204 5.878-4.94 5.878a4.937 4.937 0 01-3.806-1.726 4.942 4.942 0 015.404-7.874v-5.985C13.405 17.823 8 23.478 8 29.576A10.83 10.83 0 0018.812 40.39c5.961 0 10.81-3.645 10.81-10.813V17.392c2.278 1.588 4.998 2.322 7.903 2.371V14.26a8.039 8.039 0 01-4.33-1.506" fill="#25F4EE"/><path d="M29.622 29.576V17.393c2.278 1.586 4.998 2.321 7.903 2.37v-4.317a9.017 9.017 0 01-3.843-2.19 7.827 7.827 0 01-.49-.502c-.4-.279-.78-.587-1.136-.92a7.724 7.724 0 01-2.316-4.409h-4.367v22.286c0 4.085-2.204 6.245-4.94 6.245a4.931 4.931 0 01-3.977-2.038 4.938 4.938 0 012.356-9.281 4.9 4.9 0 011.597.281V20.19a10.802 10.802 0 00-7.876 18.181 10.745 10.745 0 006.28 2.018c5.96 0 10.81-3.643 10.81-10.812" fill="#000"/></g></svg>