<svg width="48" height="48" xmlns="http://www.w3.org/2000/svg"><path d="M20.284 29.72l-.002-10.342 9.727 5.19-9.725 5.153zM41.64 17.587s-.352-2.537-1.431-3.654c-1.37-1.466-2.904-1.474-3.607-1.56C31.565 12 24.008 12 24.008 12h-.016s-7.556 0-12.594.372c-.704.086-2.238.094-3.607 1.56-1.08 1.117-1.43 3.654-1.43 3.654S6 20.565 6 23.544v2.793c0 2.978.36 5.958.36 5.958s.352 2.536 1.43 3.653c1.37 1.467 3.17 1.42 3.97 1.574 2.88.282 12.24.37 12.24.37s7.565-.012 12.603-.385c.703-.085 2.238-.092 3.607-1.559 1.079-1.117 1.43-3.653 1.43-3.653s.36-2.98.36-5.958v-2.793c0-2.98-.36-5.958-.36-5.958z" fill="#FFF" fill-rule="evenodd"/></svg>