<?xml version="1.0" encoding="UTF-8"?>
<svg width="48px" height="48px" viewBox="0 0 48 48" version="1.1" xmlns="http://www.w3.org/2000/svg" xmlns:xlink="http://www.w3.org/1999/xlink">
    <style type="text/css">
        .st1{fill:#fff;}
    </style>
    <title>Instagram</title>
    <g stroke="none" stroke-width="1" fill="none" fill-rule="evenodd">
        <path class="st1" d="M25.6440564,8.00125481 C28.524689,8.00651102 29.1340343,8.02966857 30.5968,8.09632 C32.29984,8.17376 33.46272,8.44448 34.48064,8.84 C35.5328,9.24896 36.42496,9.79584 37.31456,10.68544 C38.20416,11.57504 38.75136,12.4672 39.16,13.51936 C39.55552,14.53728 39.82592,15.70016 39.90368,17.4032 C39.9747749,18.9634834 39.9963833,19.5527641 39.9995653,22.9632797 L39.9995653,25.0367203 C39.9963833,28.4472359 39.9747749,29.0365166 39.90368,30.5968 C39.82592,32.29984 39.55552,33.46272 39.16,34.48064 C38.75136,35.5328 38.20416,36.42496 37.31456,37.31456 C36.42496,38.20416 35.5328,38.75104 34.48064,39.16 C33.46272,39.55552 32.29984,39.82624 30.5968,39.90368 C29.0365166,39.9747749 28.4472359,39.9963833 25.0367203,39.9995653 L22.9632797,39.9995653 C19.5527641,39.9963833 18.9634834,39.9747749 17.4032,39.90368 C15.70016,39.82624 14.53728,39.55552 13.51936,39.16 C12.4672,38.75104 11.57504,38.20416 10.68544,37.31456 C9.79584,36.42496 9.24864,35.5328 8.84,34.48064 C8.44448,33.46272 8.17408,32.29984 8.09632,30.5968 C8.02966857,29.1340343 8.00651102,28.524689 8.00125481,25.6440564 L8.00125481,22.3559436 C8.00651102,19.475311 8.02966857,18.8659657 8.09632,17.4032 C8.17408,15.70016 8.44448,14.53728 8.84,13.51936 C9.24864,12.4672 9.79584,11.57504 10.68544,10.68544 C11.57504,9.79584 12.4672,9.24896 13.51936,8.84 C14.53728,8.44448 15.70016,8.17376 17.4032,8.09632 C18.8659657,8.02966857 19.475311,8.00651102 22.3559436,8.00125481 Z M25.0186977,10.8832675 L22.9813023,10.8832675 C19.6322732,10.8861221 19.0771566,10.9057829 17.53472,10.976 C15.97472,11.04736 15.12736,11.30784 14.56384,11.52704 C13.81696,11.81728 13.28384,12.16416 12.72416,12.72384 C12.16416,13.28384 11.81728,13.81696 11.52704,14.56352 C11.30816,15.12736 11.04704,15.97472 10.97632,17.53472 C10.9058103,19.0771566 10.8861244,19.6322732 10.8832677,22.9813023 L10.8832677,25.0186977 C10.8861244,28.3677268 10.9058103,28.9228434 10.97632,30.46528 C11.04704,32.02528 11.30816,32.87264 11.52704,33.43648 C11.81728,34.18304 12.16416,34.71616 12.72416,35.27616 C13.28384,35.83584 13.81696,36.18272 14.56384,36.47296 C15.12736,36.69216 15.97472,36.95264 17.53472,37.024 C19.076864,37.0942171 19.6319556,37.1138779 22.9812271,37.1167325 L25.0187729,37.1167325 C28.3680444,37.1138779 28.923136,37.0942171 30.46528,37.024 C32.02528,36.95264 32.87264,36.69216 33.43616,36.47296 C34.18304,36.18272 34.71616,35.83584 35.27584,35.27616 C35.83584,34.71616 36.18272,34.18304 36.47296,33.43648 C36.69184,32.87264 36.95296,32.02528 37.02368,30.46528 C37.0941897,28.9228434 37.1138756,28.3677268 37.1167323,25.0186977 L37.1167323,22.9813023 C37.1138756,19.6322732 37.0941897,19.0771566 37.02368,17.53472 C36.95296,15.97472 36.69184,15.12736 36.47296,14.56352 C36.18272,13.81696 35.83584,13.28384 35.27584,12.72384 C34.71616,12.16416 34.18304,11.81728 33.43616,11.52704 C32.87264,11.30784 32.02528,11.04736 30.46528,10.976 C28.9228434,10.9057829 28.3677268,10.8861221 25.0186977,10.8832675 Z M24,15.78384 C28.53792,15.78384 32.21632,19.46224 32.21632,23.99984 C32.21632,28.53776 28.53792,32.21616 24,32.21616 C19.46208,32.21616 15.78368,28.53776 15.78368,23.99984 C15.78368,19.46224 19.46208,15.78384 24,15.78384 Z M24,18.66672 C21.0544,18.66672 18.66656,21.05456 18.66656,23.99984 C18.66656,26.94544 21.0544,29.33328 24,29.33328 C26.9456,29.33328 29.33344,26.94544 29.33344,23.99984 C29.33344,21.05456 26.9456,18.66672 24,18.66672 Z M32.540928,13.539232 C33.601088,13.539232 34.460928,14.398752 34.460928,15.459232 C34.460928,16.519392 33.601088,17.379232 32.540928,17.379232 C31.480448,17.379232 30.620928,16.519392 30.620928,15.459232 C30.620928,14.398752 31.480448,13.539232 32.540928,13.539232 Z" id="Shape"></path>
    </g>
</svg>
