<svg width="48" height="48" viewBox="0 0 48 48" xmlns="http://www.w3.org/2000/svg">
  <title> Snapchat</title>
  <g fill="none">
    <path fill="#FFF"
      d="M40.1 32.7C34.3 29.9 33.4 25.5 33.3 25.2 33.3 24.8 33.2 24.5 33.7 24.1 34.1 23.7 35.9 22.6 36.4 22.2 37.3 21.7 37.6 21.1 37.4 20.3 37.2 19.8 36.7 19.6 36.2 19.6 36.1 19.6 35.9 19.7 35.8 19.7 34.8 19.9 33.9 20.4 33.4 20.5 33.3 20.5 33.3 20.5 33.2 20.5 32.9 20.5 32.8 20.4 32.9 20.1 32.9 19 33.1 17.1 32.9 15.2 32.7 12.7 31.9 11.4 30.9 10.3 30.4 9.7 28.2 7.4 24 7.4 19.8 7.4 17.6 9.7 17.1 10.3 16.1 11.4 15.3 12.7 15.1 15.2 14.9 17.1 15.1 19 15.1 20 15.2 20.4 15.1 20.5 14.8 20.5 14.7 20.5 14.7 20.5 14.6 20.5 14.1 20.4 13.2 19.9 12.2 19.7 12.1 19.7 11.9 19.6 11.8 19.6 11.3 19.6 10.8 19.8 10.6 20.3 10.4 21.1 10.7 21.6 11.6 22.2 12.1 22.6 13.9 23.7 14.3 24.1 14.8 24.5 14.7 24.8 14.7 25.2 14.6 25.5 13.7 29.9 7.9 32.7 7.5 32.9 7 33.2 8 33.8 9.6 34.7 10.7 34.6 11.5 35.1 12.2 35.6 11.8 36.5 12.3 36.9 12.9 37.3 14.8 36.9 17.2 37.7 19.2 38.3 20.4 40.2 24 40.2 27.6 40.2 28.8 38.3 30.8 37.7 33.2 36.9 35.1 37.3 35.7 36.9 36.2 36.5 35.8 35.6 36.5 35.1 37.3 34.6 38.4 34.7 40 33.8 41 33.2 40.5 32.9 40.1 32.7ZM40.1 32.7" />
    <path fill="#030303"
      d="M42.7 32.4C42.4 31.7 41.9 31.3 41.3 31 41.2 30.9 41.1 30.9 41 30.8 40.9 30.7 40.7 30.6 40.5 30.6 38.8 29.6 37.4 28.4 36.4 27 36.2 26.6 35.9 26.2 35.7 25.8 35.6 25.6 35.6 25.4 35.7 25.3 35.8 25.2 35.8 25.1 35.9 25.1 36.2 24.9 36.5 24.7 36.8 24.5 37.1 24.3 37.4 24.1 37.6 24 38.4 23.4 38.9 22.9 39.2 22.3 39.6 21.5 39.7 20.5 39.3 19.6 38.9 18.3 37.7 17.5 36.2 17.5 35.9 17.5 35.6 17.6 35.3 17.6 35.2 17.6 35.2 17.7 35.1 17.7 35.1 16.8 35.1 15.9 35 15 34.7 11.9 33.6 10.2 32.5 8.9 31.7 8.1 30.9 7.4 29.9 6.8 28.1 5.8 26.2 5.3 24 5.3 21.8 5.3 19.9 5.8 18.1 6.8 17.1 7.4 16.3 8.1 15.5 8.9 14.4 10.2 13.3 11.9 13 15 12.9 15.9 12.9 16.8 12.9 17.7 12.8 17.7 12.8 17.7 12.7 17.6 12.4 17.6 12.1 17.5 11.8 17.5 10.3 17.5 9.1 18.3 8.7 19.6 8.3 20.5 8.4 21.5 8.8 22.3 9.1 22.9 9.6 23.5 10.4 24 10.6 24.1 10.9 24.3 11.2 24.5 11.4 24.7 11.7 24.9 12 25.1 12.1 25.1 12.2 25.2 12.3 25.3 12.4 25.4 12.4 25.6 12.3 25.8 12.1 26.3 11.8 26.7 11.6 27 10.6 28.4 9.3 29.6 7.6 30.5 6.7 31 5.7 31.3 5.3 32.4 5 33.2 5.2 34.1 6 34.9 6.3 35.2 6.6 35.4 7 35.6 7.7 36 8.5 36.4 9.3 36.6 9.5 36.6 9.6 36.7 9.8 36.8 10.1 37 10 37.4 10.4 37.9 10.6 38.2 10.8 38.4 11.1 38.6 11.9 39.2 12.7 39.2 13.7 39.2 14.5 39.3 15.4 39.3 16.5 39.7 17 39.8 17.4 40.1 18 40.4 19.3 41.2 21 42.3 24 42.3 27 42.3 28.7 41.2 30 40.4 30.6 40.1 31 39.8 31.5 39.7 32.6 39.3 33.5 39.3 34.3 39.2 35.3 39.2 36.1 39.2 36.9 38.6 37.2 38.4 37.5 38.1 37.7 37.8 38 37.3 38 37 38.2 36.8 38.3 36.7 38.5 36.6 38.7 36.6 39.5 36.4 40.3 36.1 41 35.6 41.4 35.4 41.8 35.2 42 34.8L42.1 34.8C42.8 34.1 42.9 33.2 42.7 32.4ZM40 33.8C38.4 34.7 37.3 34.6 36.5 35.1 35.8 35.6 36.2 36.6 35.7 36.9 35.1 37.3 33.2 36.9 30.8 37.7 28.8 38.3 27.6 40.2 24 40.2 20.4 40.2 19.2 38.3 17.2 37.7 14.8 36.9 12.9 37.3 12.3 36.9 11.8 36.5 12.2 35.6 11.5 35.1 10.7 34.6 9.6 34.7 8 33.8 7 33.2 7.5 32.9 7.9 32.7 13.7 29.9 14.6 25.5 14.7 25.2 14.7 24.8 14.8 24.5 14.3 24.1 13.9 23.7 12.1 22.6 11.6 22.2 10.7 21.7 10.4 21.1 10.6 20.3 10.8 19.8 11.3 19.6 11.8 19.6 11.9 19.6 12.1 19.7 12.2 19.7 13.2 19.9 14.1 20.4 14.6 20.5 14.7 20.5 14.7 20.5 14.8 20.5 15.1 20.5 15.2 20.4 15.1 20.1 15.1 19 14.9 17.1 15.1 15.2 15.3 12.7 16.1 11.4 17.1 10.3 17.6 9.7 19.8 7.4 24 7.4 28.2 7.4 30.4 9.7 30.9 10.3 31.9 11.4 32.7 12.7 32.9 15.2 33.1 17.1 32.9 19 32.9 20 32.8 20.4 32.9 20.5 33.2 20.5 33.3 20.5 33.3 20.5 33.4 20.5 33.9 20.4 34.8 19.9 35.8 19.7 35.9 19.7 36.1 19.6 36.2 19.6 36.7 19.6 37.2 19.8 37.4 20.3 37.6 21.1 37.3 21.6 36.4 22.2 35.9 22.6 34.1 23.7 33.7 24.1 33.2 24.5 33.3 24.8 33.3 25.2 33.4 25.5 34.3 29.9 40.1 32.7 40.5 32.9 41 33.2 40 33.8ZM40 33.8" />
  </g>
</svg>