<?xml version="1.0" encoding="UTF-8"?>
<svg width="48px" height="48px" viewBox="0 0 48 48" version="1.1" xmlns="http://www.w3.org/2000/svg" xmlns:xlink="http://www.w3.org/1999/xlink">
    <title>Snapchat</title>
    <g id="Icon/Social/snapchat-black" stroke="none" stroke-width="1" fill="none" fill-rule="evenodd">
        <path d="M24.1978264,37.8555472 C24.1169208,37.8555472 24.0378264,37.853434 23.9584302,37.8495094 C23.9077132,37.853434 23.854883,37.8555472 23.8017509,37.8555472 C21.9454491,37.8555472 20.7539019,37.0102642 19.6016,36.1924528 C18.8061283,35.6282264 18.0553358,35.0953962 17.1708075,34.9477736 C16.7391094,34.8762264 16.3095245,34.8396981 15.8941283,34.8396981 C15.1463547,34.8396981 14.5564679,34.9556226 14.1253736,35.0401509 C13.8636377,35.0914717 13.6378264,35.1355472 13.4660528,35.1355472 C13.2867321,35.1355472 13.092317,35.0966038 13.0080906,34.8070943 C12.9344302,34.5562264 12.8816,34.3135094 12.8305811,34.0780377 C12.6989585,33.4730566 12.6053736,33.1011321 12.3529962,33.0621887 C9.40839245,32.605434 8.56582642,31.9832453 8.37775094,31.5415849 C8.35118491,31.4784906 8.33609057,31.4150943 8.33246792,31.3523019 C8.32310943,31.1826415 8.4426566,31.0329057 8.6096,31.0057358 C13.1357887,30.2573585 15.1656755,25.6140377 15.2499019,25.4169057 C15.252317,25.4114717 15.2547321,25.4063396 15.2571472,25.4006038 C15.5342792,24.837283 15.588317,24.3482264 15.4189585,23.9473208 C15.1086189,23.2125283 14.0951849,22.8895094 13.4246943,22.6760755 C13.2607698,22.6238491 13.1049962,22.5746415 12.9824302,22.5260377 C11.6444679,21.9950189 11.5327698,21.4498113 11.5856,21.1720755 C11.6752604,20.6990189 12.3052981,20.3690566 12.814883,20.3690566 C12.9546566,20.3690566 13.0778264,20.3938113 13.1813736,20.4424151 C13.7833358,20.7255849 14.3258264,20.8686792 14.7940528,20.8686792 C15.4406943,20.8686792 15.7229585,20.5960755 15.7573736,20.5601509 C15.7410717,20.2528302 15.7205434,19.9316226 15.7000151,19.6001509 C15.5647698,17.4522264 15.3981283,14.7835472 16.0749585,13.2599245 C18.1039396,8.69358491 22.4067321,8.33886792 23.6770717,8.33886792 C23.7099774,8.33886792 24.2343547,8.33313208 24.2343547,8.33313208 L24.3095245,8.33283019 C25.582883,8.33283019 29.895034,8.68845283 31.9255245,13.2575094 C32.6026566,14.781434 32.4348075,17.4528302 32.300166,19.5989434 L32.2944302,19.6922264 C32.2757132,19.9910943 32.2576,20.2815094 32.2425057,20.5598491 C32.2748075,20.5927547 32.5344302,20.8436226 33.1209962,20.866566 L33.1216,20.866566 C33.5671849,20.8493585 34.0791849,20.706566 34.6412981,20.4424151 C34.8061283,20.3651321 34.9890717,20.3491321 35.1134491,20.3491321 C35.3036377,20.3491321 35.4965434,20.3859623 35.6565434,20.4529811 L35.6662038,20.4569057 C36.1208453,20.6184151 36.4185057,20.9384151 36.4251472,21.2726038 C36.430883,21.5871698 36.1914868,22.0605283 35.0177509,22.5260377 C34.8960906,22.5740377 34.740317,22.6235472 34.5754868,22.6760755 C33.9040906,22.8898113 32.8915623,23.2125283 32.5812226,23.9470189 C32.4115623,24.3479245 32.4659019,24.8366792 32.743034,25.4003019 C32.7451472,25.4060377 32.7478642,25.4111698 32.7502792,25.4169057 C32.8342038,25.6137358 34.8622792,30.2558491 39.3905811,31.0051321 C39.5578264,31.0326038 39.6770717,31.1823396 39.6680151,31.352 C39.6640906,31.4156981 39.6489962,31.48 39.6218264,31.5421887 C39.4349585,31.9805283 38.5929962,32.6024151 35.6474868,33.0591698 C35.406883,33.0963019 35.3136,33.4108679 35.1702038,34.0710943 C35.1176755,34.3110943 35.0648453,34.5468679 34.9920906,34.7950189 C34.9292981,35.0102642 34.7955623,35.1110943 34.5706566,35.1110943 L34.5341283,35.1110943 C34.3783547,35.1110943 34.156166,35.0830189 33.8751094,35.0277736 C33.3763925,34.9299623 32.8176,34.8396981 32.1060528,34.8396981 C31.6906566,34.8396981 31.2607698,34.8762264 30.8287698,34.9477736 C29.9451472,35.0953962 29.1949585,35.6273208 28.4009962,36.1906415 C27.2465811,37.0102642 26.0547321,37.8555472 24.1978264,37.8555472" id="Icon" fill="#000000"></path>
    </g>
</svg>
