<?xml version="1.0" encoding="UTF-8"?>
<svg width="29px" height="29px" viewBox="0 0 29 29" version="1.1" xmlns="http://www.w3.org/2000/svg" xmlns:xlink="http://www.w3.org/1999/xlink">
    <title>Moon Black</title>
    <g id="Iconography" stroke="none" stroke-width="1" fill="none" fill-rule="evenodd">
        <g id="Icons-v2" transform="translate(-319.000000, -498.000000)" fill="#000000">
            <g id="Weather" transform="translate(95.000000, 444.000000)">
                <g id="weather-moon" transform="translate(214.000000, 44.000000)">
                    <path d="M10,24.4 C10,22.4 10.4,20.6 11.2,18.8 C12,17 13,15.6 14.2,14.2 C15.4,12.8 17,12 18.8,11.2 C20.6,10.4 22.4,10 24.4,10 L26.6,10 C27,10 27,10.2 27,10.6 L27,12.4 C27,15 28,17.2 29.8,18.8 C31.6,20.6 33.6,21.6 36.2,21.6 L37.8,21.8 C38.2,21.8 38.2,22 38.2,22.2 L38.2,24.2 C38.2,26.8 37.6,29.2 36.4,31.4 C35.2,33.6 33.4,35.4 31.2,36.6 C29,37.8 26.6,38.6 24,38.6 C22,38.6 20.2,38.2 18.4,37.4 C16.6,36.6 15.2,35.6 13.8,34.4 C12.6,33.2 11.6,31.6 10.8,29.8 C10.4,28.2 10,26.2 10,24.4 Z M13.6,24.4 C13.6,26 13.8,27.4 14.4,28.8 C15,30.2 15.8,31.2 16.8,32.2 C17.8,33.2 19,33.8 20.2,34.4 C21.4,35 22.8,35.2 24,35.2 C25.2,35.2 26.4,35 27.6,34.6 C28.8,34.2 29.8,33.6 30.8,32.6 C31.8,31.6 32.6,30.8 33.4,29.4 C34.2,28.2 34.6,26.8 34.8,25.2 C31.6,24.6 29,23.2 27,21 C25,18.8 24.2,16.4 23.8,13.4 C21.8,13.6 20.2,14 18.6,15.2 C17,16.2 15.8,17.6 15,19.2 C14.2,20.8 13.6,22.6 13.6,24.4 Z" id="Shape"></path>
                </g>
            </g>
        </g>
    </g>
</svg>
