<?xml version="1.0" encoding="UTF-8"?>
<svg width="32px" height="32px" viewBox="0 0 32 32" version="1.1" xmlns="http://www.w3.org/2000/svg" xmlns:xlink="http://www.w3.org/1999/xlink">
    <title>Sunny White</title>
    <g id="Iconography" stroke="none" stroke-width="1" fill="none" fill-rule="evenodd">
        <g id="Icons-v2" transform="translate(-717.000000, -496.000000)" fill="#ffffff">
            <g id="Weather" transform="translate(95.000000, 444.000000)">
                <g id="weather-sun" transform="translate(614.000000, 44.000000)">
                    <path d="M24.3333333,34.6666667 C24.8856181,34.6666667 25.3333333,35.1143819 25.3333333,35.6666667 L25.3333333,39 C25.3333333,39.5522847 24.8856181,40 24.3333333,40 L23.6666667,40 C23.1143819,40 22.6666667,39.5522847 22.6666667,39 L22.6666667,35.6666667 C22.6666667,35.1143819 23.1143819,34.6666667 23.6666667,34.6666667 L24.3333333,34.6666667 Z M33.2593915,31.3737734 L35.6164141,33.7307961 C36.0069384,34.1213203 36.0069384,34.7544853 35.6164141,35.1450096 L35.1450096,35.6164141 C34.7544853,36.0069384 34.1213203,36.0069384 33.7307961,35.6164141 L31.3737734,33.2593915 C30.9832492,32.8688672 30.9832492,32.2357023 31.3737734,31.845178 L31.845178,31.3737734 C32.2357023,30.9832492 32.8688672,30.9832492 33.2593915,31.3737734 Z M16.3165825,31.3737734 L16.787987,31.845178 C17.1785113,32.2357023 17.1785113,32.8688672 16.787987,33.2593915 L14.4309644,35.6164141 C14.0404401,36.0069384 13.4072751,36.0069384 13.0167508,35.6164141 L12.5453463,35.1450096 C12.154822,34.7544853 12.154822,34.1213203 12.5453463,33.7307961 L14.9023689,31.3737734 C15.2928932,30.9832492 15.9260582,30.9832492 16.3165825,31.3737734 Z M24,14.6666667 C29.1546577,14.6666667 33.3333333,18.8453423 33.3333333,24 C33.3333333,29.1546577 29.1546577,33.3333333 24,33.3333333 C18.8453423,33.3333333 14.6666667,29.1546577 14.6666667,24 C14.6666667,18.8453423 18.8453423,14.6666667 24,14.6666667 Z M24,17.3333333 C20.3181017,17.3333333 17.3333333,20.3181017 17.3333333,24 C17.3333333,27.6818983 20.3181017,30.6666667 24,30.6666667 C27.6818983,30.6666667 30.6666667,27.6818983 30.6666667,24 C30.6666667,20.3181017 27.6818983,17.3333333 24,17.3333333 Z M12.3333333,22.6666667 C12.8856181,22.6666667 13.3333333,23.1143819 13.3333333,23.6666667 L13.3333333,24.3333333 C13.3333333,24.8856181 12.8856181,25.3333333 12.3333333,25.3333333 L9,25.3333333 C8.44771525,25.3333333 8,24.8856181 8,24.3333333 L8,23.6666667 C8,23.1143819 8.44771525,22.6666667 9,22.6666667 L12.3333333,22.6666667 Z M39,22.6666667 C39.5522847,22.6666667 40,23.1143819 40,23.6666667 L40,24.3333333 C40,24.8856181 39.5522847,25.3333333 39,25.3333333 L35.6666667,25.3333333 C35.1143819,25.3333333 34.6666667,24.8856181 34.6666667,24.3333333 L34.6666667,23.6666667 C34.6666667,23.1143819 35.1143819,22.6666667 35.6666667,22.6666667 L39,22.6666667 Z M35.1450096,12.7071068 L35.6164141,13.1785113 C36.0069384,13.5690356 36.0069384,14.2022006 35.6164141,14.5927249 L33.2593915,16.9497475 C32.8688672,17.3402718 32.2357023,17.3402718 31.845178,16.9497475 L31.3737734,16.4783429 C30.9832492,16.0878187 30.9832492,15.4546537 31.3737734,15.0641294 L33.7307961,12.7071068 C34.1213203,12.3165825 34.7544853,12.3165825 35.1450096,12.7071068 Z M14.4309644,12.7071068 L16.787987,15.0641294 C17.1785113,15.4546537 17.1785113,16.0878187 16.787987,16.4783429 L16.3165825,16.9497475 C15.9260582,17.3402718 15.2928932,17.3402718 14.9023689,16.9497475 L12.5453463,14.5927249 C12.154822,14.2022006 12.154822,13.5690356 12.5453463,13.1785113 L13.0167508,12.7071068 C13.4072751,12.3165825 14.0404401,12.3165825 14.4309644,12.7071068 Z M24.3333333,8 C24.8856181,8 25.3333333,8.44771525 25.3333333,9 L25.3333333,12.3333333 C25.3333333,12.8856181 24.8856181,13.3333333 24.3333333,13.3333333 L23.6666667,13.3333333 C23.1143819,13.3333333 22.6666667,12.8856181 22.6666667,12.3333333 L22.6666667,9 C22.6666667,8.44771525 23.1143819,8 23.6666667,8 L24.3333333,8 Z" id="Combined-Shape"></path>
                </g>
            </g>
        </g>
    </g>
</svg>
