<?xml version="1.0" encoding="utf-8"?>
<!-- UCLA Generated: Adobe Illustrator export SVG version1.1 - IDs removed, inline styles added, classes changed, titles added. DCP reviewed -->
<svg width="48px" height="48px" version="1.1" xmlns="http://www.w3.org/2000/svg" xmlns:xlink="http://www.w3.org/1999/xlink" x="0px" y="0px"
	 viewBox="0 0 48 48" enable-background="new 0 0 48 48" xml:space="preserve">
  <title>Partly Cloudy</title>
  <g>
  	<path fill-rule="evenodd" clip-rule="evenodd" d="M0,34.7c0,1.6,0.4,3,1.3,4.5c0.9,1.4,1.8,2.5,3.2,3.2
  		c1.4,0.7,2.9,1.3,4.5,1.3h19.3c1.6,0,3-0.4,4.5-1.3c1.4-0.9,2.5-1.8,3.2-3.2c0.7-1.4,1.3-2.9,1.3-4.5c0-1.3-0.2-2.3-0.7-3.6
  		c1.4-1.6,2-3.6,2-5.9c0-1.3-0.2-2.5-0.7-3.6c-0.5-1.1-1.1-2.1-2-3s-1.8-1.6-3-2c-1.1-0.5-2.3-0.7-3.6-0.7c-2.7,0-5,1.1-7,3
  		c-1.4-0.7-3-1.3-4.8-1.3c-2.5,0-4.7,0.7-6.6,2.3S7.5,23.6,7,26.1c-2,0.5-3.6,1.4-4.8,3S0,32.7,0,34.7z M3,34.7
  		c0-1.4,0.5-2.9,1.4-3.9c1.1-1.1,2.3-1.8,3.8-2h0.9c0.2,0,0.4-0.2,0.4-0.4l0.2-0.9c0.2-2,1.1-3.6,2.5-4.8c1.4-1.3,3-2,5-2
  		s3.8,0.7,5.2,2c1.4,1.3,2.3,2.9,2.5,4.8l0.2,1.1c0,0.2,0.2,0.4,0.4,0.4h2.9c1.6,0,2.9,0.5,4.1,1.8c1.1,1.1,1.8,2.5,1.8,4.1
  		c0,1.6-0.5,3-1.8,4.1c-1.1,1.1-2.5,1.8-4.1,1.8H8.8c-1.6,0-2.9-0.5-4.1-1.8C3.6,37.7,3,36.3,3,34.7z M15,12.6
  		c0,0.4,0.2,0.7,0.4,1.1l1.3,1.1c0.4,0.4,0.9,0.5,1.1,0.4c0.4,0,0.7-0.2,1.1-0.5c0.4-0.4,0.4-0.7,0.4-1.1c0-0.4-0.2-0.5-0.5-0.7
  		l-1.1-1.3c-0.4-0.4-0.7-0.4-1.1-0.4c-0.4,0-0.7,0.2-1.1,0.5C15.2,11.9,15,12.3,15,12.6z M24.5,20.7c1.3-1.3,2.7-1.8,4.3-1.8
  		c1.8,0,3.2,0.5,4.5,1.8c1.3,1.3,1.8,2.7,1.8,4.5c0,1.1-0.4,2.1-0.9,3.2c-1.8-1.8-3.8-2.5-6.3-2.5h-0.4
  		C27.2,23.9,26.1,22.1,24.5,20.7z M27.4,11.2c0,0.5,0.2,0.9,0.4,1.1s0.7,0.4,1.1,0.4c0.5,0,0.9-0.2,1.1-0.4c0.4-0.4,0.4-0.7,0.4-1.1
  		V7.4c0-0.4-0.2-0.7-0.4-1.1C29.7,6,29.4,6,29,6c-0.4,0-0.7,0.2-1.1,0.4c-0.4,0.2-0.4,0.7-0.4,1.1L27.4,11.2L27.4,11.2z M37.4,15.3
  		c0,0.5,0.2,0.9,0.4,1.1c0.4,0.4,0.7,0.4,1.1,0.4c0.4,0,0.7-0.2,1.1-0.4l2.5-2.5c0.4-0.4,0.4-0.7,0.4-1.1s-0.2-0.7-0.4-1.1
  		c-0.4-0.4-0.7-0.4-1.1-0.4s-0.7,0.2-1.1,0.4l-2.7,2.5C37.4,14.4,37.4,14.8,37.4,15.3z M38.7,36.4c0,0.4,0.2,0.9,0.4,1.1l1.1,1.1
  		c0.2,0.4,0.5,0.4,1.1,0.4c0.5,0,0.7-0.2,1.1-0.4c0.4-0.2,0.4-0.7,0.4-1.1s-0.2-0.7-0.4-1.1l-1.1-1.1C40.8,35,40.5,35,40.1,35
  		c-0.4,0-0.7,0.2-1.1,0.4C38.9,35.7,38.7,36.1,38.7,36.4z M41.4,25.2c0,0.4,0.2,0.7,0.5,1.1c0.4,0.4,0.7,0.4,1.1,0.4h3.6
  		c0.4,0,0.7-0.2,1.1-0.4c0.4-0.2,0.4-0.7,0.4-1.1s-0.2-0.7-0.4-1.1c-0.2-0.4-0.7-0.4-1.1-0.4H43c-0.4,0-0.7,0.2-1.1,0.4
  		C41.6,24.4,41.4,24.8,41.4,25.2z"/>
  </g>
</svg>
