<?xml version="1.0" encoding="utf-8"?>
<!-- UCLA Generated: Adobe Illustrator export SVG version1.1 - IDs removed, inline styles added, classes changed, titles added. DCP reviewed -->
<svg width="48px" height="48px" version="1.1" xmlns="http://www.w3.org/2000/svg" xmlns:xlink="http://www.w3.org/1999/xlink" x="0px" y="0px"
	 viewBox="0 0 48 48" enable-background="new 0 0 48 48" xml:space="preserve">
  <title>Light Rain</title>
  <g>
  	<path fill-rule="evenodd" clip-rule="evenodd" fill="#FFFFFF" d="M4,27c0-2.2,0.8-4.4,2.2-6.2c1.4-1.8,3.2-3,5.4-3.4
  		c0.6-2.8,2-5,4.2-6.8S20.6,8,23.4,8s5.2,0.8,7.4,2.6s3.6,3.8,4.2,6.6h0.6c1.8,0,3.4,0.4,5,1.2c1.6,0.8,2.8,2,3.6,3.6s1.4,3.2,1.4,5
  		c0,2.6-1,5-2.8,7s-4,3-6.8,3c-0.2,0-0.4-0.2-0.4-0.4V34c0-0.2,0.2-0.4,0.4-0.4c1.8,0,3.2-0.8,4.4-2c1.2-1.2,1.8-2.8,1.8-4.6
  		s-0.6-3.2-2-4.6c-1.2-1.2-2.8-2-4.6-2h-3.2c-0.2,0-0.4-0.2-0.4-0.4l-0.2-1.2c-0.2-2.2-1.2-4-2.8-5.4s-3.6-2.2-5.8-2.2
  		S19,12,17.4,13.4s-2.6,3.2-2.8,5.4l0.2,1.4c0,0.2-0.2,0.4-0.4,0.4h-1c-1.6,0-3,0.8-4.2,2C8,23.8,7.4,25.2,7.4,27s0.6,3.2,1.8,4.6
  		s2.6,2,4.4,2c0.2,0,0.4,0.2,0.4,0.4v2.6c0,0.2-0.2,0.4-0.4,0.4c-2.6-0.2-5-1.2-6.8-3S4,29.6,4,27z M16,28.8c0-0.4,0.2-1.2,0.8-2
  		c0.4-0.8,1-1.6,1.4-2c0.4-0.4,0.6-0.8,0.8-0.8l0.8,0.8c0.6,0.6,1,1.2,1.4,2c0.4,0.8,0.6,1.4,0.6,2c0,0.8-0.2,1.4-0.8,2
  		c-0.6,0.6-1.2,0.8-2,0.8s-1.4-0.2-2-0.8C16.2,30.2,16,29.6,16,28.8z M22,36.8c0-0.6,0.2-1.2,0.4-2c0.2-0.8,0.8-1.4,1.2-2
  		c0.4-0.6,0.8-1,1.4-1.6c0.6-0.6,1-1,1.2-1.2c0.2-0.2,0.2-0.2,0.4-0.4L27,30c0.8,0.6,1.6,1.6,2.6,3c0.4,0.6,0.8,1.4,1.2,2
  		c0.4,0.6,0.4,1.4,0.4,2c0,1.2-0.4,2.4-1.4,3.2s-2,1.4-3.4,1.4c-1.2,0-2.4-0.4-3.2-1.4C22.4,39.2,22,38,22,36.8z M24.8,23.4
  		c0-0.8,0.6-1.8,2-3.2l0.4,0.4c0.4,0.4,0.6,0.8,1,1.4c0.2,0.6,0.4,1,0.4,1.2c0,0.6-0.2,1-0.6,1.4s-0.8,0.6-1.4,0.6s-1-0.2-1.4-0.6
  		C25,24.4,24.8,24,24.8,23.4z"/>
  </g>
</svg>
